<svg width="272" height="152" viewBox="0 0 272 152" fill="none" xmlns="http://www.w3.org/2000/svg">
<g clip-path="url(#clip0_23_727)">
<path d="M258.446 118.449L258.453 118.435C258.545 118.27 258.572 118.084 258.534 117.9L258.533 117.896C258.531 117.891 258.531 117.887 258.53 117.883L258.525 117.865L258.523 117.859C258.523 117.855 258.522 117.851 258.52 117.847L258.517 117.838L253.138 99.996C252.691 100.299 252.242 100.598 251.79 100.893L256.555 116.698L237.106 108.378C236.288 108.627 235.444 108.839 234.597 108.983L255.286 117.836L128.169 146.751L120.436 148.692L201.315 116.113C201.166 115.603 201.063 115.093 200.999 114.582L116.759 148.537L178.917 97.4824C178.231 97.454 177.56 97.3383 176.949 97.099L113.94 148.852L127.995 105.798C127.611 104.938 127.372 104.016 127.258 103.062L113.201 146.126L113.652 96.047C113.18 96.2257 112.698 96.3904 112.211 96.535L111.858 144.585L111.706 142.865L104.617 96.0979C104.19 96.3573 103.749 96.623 103.296 96.8866L111.613 151.25C111.642 151.435 111.737 151.602 111.88 151.723L111.882 151.725L111.884 151.726L111.899 151.738L111.911 151.747L111.913 151.748L111.917 151.752L111.93 151.759L111.932 151.761L111.94 151.766L111.961 151.783L111.971 151.789L111.981 151.795L111.995 151.803L112.014 151.814L112.027 151.82L112.037 151.825L112.048 151.83L112.049 151.83L112.05 151.831L112.059 151.836C112.065 151.838 112.071 151.841 112.076 151.843L112.091 151.849L112.102 151.854L112.12 151.86L112.131 151.864L112.157 151.872C112.185 151.881 112.214 151.888 112.243 151.893L112.25 151.894L112.261 151.896L112.276 151.898L112.284 151.899L112.3 151.901C112.384 151.91 112.47 151.906 112.553 151.887L257.919 118.819L257.927 118.817C258.136 118.775 258.322 118.65 258.434 118.467L258.439 118.458L258.446 118.449ZM251.323 93.9776L248.122 83.3597C247.62 83.495 247.118 83.6225 246.619 83.7417L249.983 94.9012C250.432 94.5963 250.879 94.2883 251.323 93.9776ZM241.351 72.9765L241.27 72.9054C240.781 73.3576 240.253 73.7941 239.754 74.2138C239.403 74.5082 239.051 74.8011 238.699 75.0928L239.041 75.2674C239.393 74.9198 239.72 74.6024 239.991 74.3323C240.448 73.8795 240.896 73.4234 241.351 72.9765ZM232.52 65.2313L220.183 54.4122L220.077 54.3312L163.326 15.8957L163.211 15.8273L132.417 0.153427C132.294 0.0909119 132.156 0.0601044 132.018 0.0702209L131.998 0.07164L89.8625 3.61327C89.6596 3.63031 89.4759 3.72314 89.343 3.87643L89.3384 3.88181C89.336 3.88449 89.3337 3.88733 89.3313 3.89018L89.3187 3.90549L89.3126 3.91322C89.2053 4.05026 89.1474 4.2195 89.1527 4.39348L89.1533 4.41292C89.1544 4.45001 89.1588 4.48711 89.1655 4.52373L89.1671 4.53241L97.9428 61.8934C98.3911 61.6066 98.8451 61.3303 99.3065 61.0662L91.0514 6.60516L112.713 28.3194L112.479 60.1219C112.893 60.6383 113.185 61.2867 113.334 62.1086C113.433 62.6577 113.443 63.2215 113.365 63.7739C113.274 64.4122 113.071 65.0131 112.78 65.5772C113.164 65.5407 113.549 65.5309 113.927 65.5546L114.253 29.4539L144.582 49.9945L130.953 91.7432C131.657 90.9025 132.461 90.1384 133.328 89.4628L145.916 50.8985L169.876 67.1258C171.867 66.4988 173.78 65.8784 175.437 65.1749L170.839 65.6286L162.832 37.5983L169.684 32.4379L202.282 54.5154L199.974 62.7542L185.79 64.1536C185.848 64.6692 185.813 65.2011 185.702 65.7129L199.529 64.349L194.586 81.9958L179.871 72.03C179.488 72.3844 179.092 72.7419 178.703 73.1036L193.753 83.2965L186.985 88.8553C187.169 88.7671 187.351 88.6774 187.535 88.5871C187.783 88.4559 188.035 88.2928 188.278 88.1498C188.539 87.9958 188.804 87.8433 189.074 87.7058C189.761 87.3566 190.451 87.1605 191.239 87.3094L191.29 87.319L195.087 84.2003L210.044 94.3303C210.375 93.9178 210.705 93.5177 211.029 93.1325L195.938 82.9113L201.183 64.1858L214.241 62.8977L220.115 83.4601C220.532 83.0483 220.952 82.6407 221.377 82.2391L216.043 63.5614L224.546 67.8894L224.186 68.4295C224.093 68.5699 224.05 68.734 224.06 68.9022L224.689 79.1486C225.008 78.8694 225.333 78.5956 225.644 78.3256C225.766 78.2202 225.9 78.1073 226.038 77.9901C225.747 76.8274 225.746 75.6792 225.96 74.5586L225.584 68.4177L228.149 69.7233C228.33 69.4625 228.517 69.2047 228.71 68.9505C228.831 68.7914 228.959 68.6311 229.094 68.4699L215.205 61.401L159.031 23.3563L158.979 23.4155L158.542 23.0336C158.518 23.0123 158.493 22.9925 158.466 22.9745L157.986 22.649L158.03 22.5843L140.307 7.04044L140.884 6.19595L162.479 17.1889L219.177 55.5887L231.309 66.2262C231.694 65.8888 232.1 65.5557 232.52 65.2313ZM99.6125 72.8076L100.021 75.478C100.431 74.9676 100.846 74.4671 101.264 73.979L101.043 72.5245C100.569 72.6287 100.092 72.7228 99.6125 72.8076ZM102.201 89.7276L102.315 90.4718C102.742 90.1666 103.189 89.8604 103.623 89.5413L103.478 88.5861C103.105 88.9338 102.727 89.2738 102.346 89.5991L102.201 89.7276ZM207.168 113.755L226.115 106.123C225.639 105.366 225.316 104.512 225.127 103.601C225.056 103.262 225.003 102.918 224.967 102.572L216.025 96.5162C215.692 96.9119 215.362 97.3097 215.034 97.7092L225.416 104.74L207.166 112.096C207.104 112.669 207.101 113.225 207.168 113.755ZM113.712 89.4682L113.717 88.9068C113.496 89.1185 113.256 89.3128 113.002 89.483C112.973 89.606 112.937 89.7295 112.895 89.8536C113.171 89.7315 113.443 89.6036 113.712 89.4682ZM113.769 83.096L113.818 77.7074C113.34 78.3143 112.843 78.9129 112.336 79.4837L112.315 82.4582C112.857 82.5708 113.351 82.7897 113.769 83.096ZM233.334 97.0933L241.868 84.6123C241.762 84.6254 241.655 84.6381 241.549 84.6501C241.175 84.6928 240.805 84.707 240.44 84.727C240.166 85.0824 239.887 85.4959 239.652 85.8064C237.991 88.0066 236.456 90.3536 235.163 92.7872C234.487 94.0578 233.894 95.4147 233.436 96.778C233.406 96.8663 233.372 96.9725 233.334 97.0933ZM221.991 90.0328L224.93 100.322C225.087 98.009 225.781 95.6673 226.583 93.5995C226.735 93.2083 226.894 92.8218 227.059 92.4397L226.634 85.5292L225.167 86.9232L225.543 93.0439L224.513 93.2187L223.246 88.778C222.824 89.1932 222.407 89.6115 221.991 90.0328ZM168.942 64.6277L146.827 49.6503L161.506 38.5971L168.942 64.6277ZM145.474 48.7345L115.693 28.5643L157.462 24.4439L161.05 37.005L145.474 48.7345ZM113.378 26.7986L91.6489 5.01299L130.507 1.74544L113.378 26.7986ZM148.14 15.9677L115.408 26.573L132.21 1.99771L148.14 15.9677ZM125.138 25.0433L148.246 17.5562C148.407 17.5041 148.544 17.4026 148.64 17.2648L149.013 16.7334L156.18 23.0187L125.352 26.0601L125.138 25.0433ZM168.331 31.5216L162.376 36.0061L159.359 25.4453L168.331 31.5216ZM201.63 62.5909L203.635 55.4316L212.607 61.5081L201.63 62.5909Z" fill="url(#paint0_linear_23_727)"/>
<path d="M19.4795 98.941C18.2426 99.3173 14.7225 98.7942 13.4944 98.4158C7.33233 96.5166 6.82501 90.5876 8.92972 85.1748C9.58533 83.4887 10.2023 82.0006 11.0894 80.6861C12.077 79.2229 12.5182 78.8755 13.281 77.8693L15.7026 75.2776C17.4605 73.7414 19.3714 72.2923 21.4494 71.1955C22.8671 70.4471 24.5513 69.7395 26.283 69.3801C28.1467 68.9935 30.6318 69.0853 31.9553 70.0377C34.4723 71.8489 35.7229 75.586 34.2598 79.761C32.9595 83.4715 30.9865 85.3726 28.3271 87.1274C26.578 88.2813 23.4657 89.6561 21.1873 89.908C20.3525 90.0003 18.8681 89.349 18.6674 90.2353C19.5387 91.336 23.7295 89.6729 24.8924 89.409C23.9158 90.5876 23.0963 90.7343 21.3681 93.3687C20.6235 94.5038 19.987 95.9312 19.7056 97.3333C19.603 97.8451 19.6196 98.5067 19.4795 98.941ZM49.9184 82.2544C49.8979 83.647 51.4355 82.5468 53.4925 82.2525C58.0285 81.6036 62.9377 82.6287 59.9103 88.7559C58.2696 92.0765 53.0203 96.8381 49.842 98.7394C45.2944 101.46 41.0101 103.36 35.6402 104.611C31.4378 105.589 22.3527 106.676 20.7621 100.929C28.104 99.9399 34.1943 95.4496 39.2992 91.2046C39.523 91.0184 39.6517 90.8497 39.8782 90.6627C42.3489 88.6238 46.716 84.2478 48.9377 82.0176L57.5036 74.108C59.1142 72.6864 62.6614 70.3669 64.7718 69.6471C64.8622 72.953 61.7577 76.1389 59.2937 77.8316C57.2937 79.2056 54.8768 80.5282 52.4834 81.361C51.6863 81.6382 50.5865 81.9256 49.9184 82.2544ZM65.465 67.6839C64.2662 64.6859 60.8731 63.5947 56.7209 64.1585C52.9407 64.6718 50.3223 65.8578 47.5816 67.5004C45.9415 68.4833 43.5507 70.2961 42.3077 71.6399C40.1555 73.9667 37.1198 78.3384 37.2703 82.1803C37.3323 83.7605 38.4035 83.4924 38.3569 82.2785C38.3358 81.7264 38.0806 81.4602 38.0695 80.8507C38.0405 79.2706 39.4971 76.3069 40.2038 75.1603C43.2062 70.2891 49.3982 66.2399 55.1862 65.1659C58.2635 64.5949 63.0133 64.6618 64.2746 68.0879C63.8021 68.4191 63.2075 68.5958 62.6823 68.8541C59.1505 70.5915 56.6259 72.6493 53.7133 75.1362C51.764 76.8007 46.8613 81.4295 45.3218 83.1137L43.5777 84.7476C43.105 85.1761 42.8681 85.4094 42.3882 85.9091L39.912 88.1434C39.475 88.596 39.1705 88.8106 38.691 89.2725C38.3559 89.5954 37.8016 90.0271 37.4084 90.3489C32.6558 94.238 27.2248 98.171 20.3736 98.9142C20.4555 94.3952 23.4002 90.9699 27.0287 88.8978C28.7621 87.9079 30.8793 87.0527 33.1513 86.6278C33.9956 86.4699 36.2327 86.1379 36.9564 86.4988C37.4082 86.724 37.4938 87.1188 38.2375 87.2787C39.8797 87.6314 40.9625 86.0638 37.9078 85.6605C36.1035 85.4222 33.9564 85.5923 32.1832 85.967C31.3237 86.1486 30.5995 86.4429 29.8251 86.6385C30.9964 85.5128 31.6885 85.0953 32.9459 83.5562C33.8333 82.4699 34.6868 81.2535 35.3159 79.6893C36.203 77.4837 36.6164 74.2606 35.4391 71.9791C33.4354 68.0963 28.8634 67.5198 24.526 69.0521C20.8912 70.3362 17.0203 73.1644 14.3328 75.9562C12.7265 77.6248 12.2106 78.3 10.8726 80.2684C9.33662 82.5284 7.82829 85.8315 7.36299 89.1324C6.60185 94.5319 8.83718 99.4594 14.2357 100.744C16.3744 101.253 17.7009 101.038 19.8476 101.076C20.5571 103.626 22.5828 105.521 24.9856 106.376C33.4038 109.372 47.4649 103.478 54.1487 97.9227L59.3503 92.7915C60.8321 91.0562 64.1559 86.4336 62.6471 83.8961C61.1694 81.4105 58.0037 81.4512 54.5776 81.5981L56.6075 80.562C58.5351 79.5672 60.3919 78.3983 61.9112 76.9664C63.8856 75.1056 65.6786 73.2947 65.8893 69.1901C66.8363 68.8993 67.3084 68.4378 68.6181 68.329C69.2409 68.2772 69.6419 68.4076 70.183 68.1448C70.5173 67.9826 70.9617 67.6572 70.737 67.1737C69.5287 66.6575 66.6612 67.4874 65.465 67.6839Z" fill="url(#paint1_linear_23_727)"/>
<path d="M96.1991 90.7136C96.418 89.4547 98.9559 85.2175 99.6142 84.1708C100.95 82.0469 102.306 80.1684 103.729 78.365C105.22 76.4738 106.779 74.5824 108.393 73.1059C108.782 72.7508 113.274 68.5229 114.452 69.5952C115.549 70.5943 110.86 76.4101 109.968 77.3274L107.621 79.8887C106.616 81.0576 106.143 81.4166 105.136 82.4191L96.1991 90.7136ZM97.8496 67.408C98.9239 66.5549 100.06 65.6789 101.284 64.9052C109.738 59.5616 112.38 62.1226 108.233 65.9025C105.819 68.1043 97.9634 70.2628 94.6907 70.0742L97.8496 67.408ZM108.289 60.9424H106.913C106.884 60.957 106.847 60.9706 106.823 60.9794L106.468 61.0928C101.496 62.3214 97.6965 65.2052 93.9154 68.3901C92.0989 69.9202 92.4617 70.2597 90.3285 70.1197C84.689 69.7497 79.1697 68.1542 73.4805 69.29C71.1986 69.7455 69.827 70.3836 68.3542 71.5347C67.7553 72.0027 64.9913 74.4756 65.5547 76.0028C66.5483 76.1412 66.8584 74.3153 67.233 73.4784C67.6164 72.6217 68.5788 71.8959 69.3474 71.4026C73.2452 68.9007 79.1364 69.2726 83.7003 69.8927C84.9448 70.0617 86.1539 70.2488 87.4016 70.4005C88.5464 70.5397 90.1604 70.5645 91.2158 70.7689C89.572 72.256 87.8524 74.1142 86.3269 75.8485C86.0998 76.1067 85.889 76.2516 85.6666 76.5139C83.5495 79.0122 81.4445 81.3914 79.4471 84.0056C78.3292 85.4687 77.2488 86.8479 76.2454 88.3722C75.9289 88.853 75.6306 89.3418 75.2527 89.8286C74.2034 91.1796 70.4605 92.8809 68.6589 93.2652C67.2153 93.573 65.0088 93.7676 65.7473 91.7068C66.1285 90.6431 67.7001 89.3016 67.5352 88.5358C67.3588 87.7169 66.3063 87.9557 65.8687 88.3526C64.746 89.3703 63.0134 91.5996 63.5174 93.3399C64.2033 95.7087 69.5603 93.619 71.0257 92.9753C71.6634 92.6953 72.1731 92.4611 72.7448 92.1376C73.275 91.8375 73.7504 91.4724 74.3104 91.2413C74.0452 91.8775 73.4174 92.7343 73.0188 93.4285C71.7061 95.7148 70.4297 97.8012 69.7525 100.492C68.2981 106.272 72.3688 106.715 76.6672 104.92C79.7032 103.651 82.821 101.72 85.392 99.8226C86.7852 98.7944 88.0621 97.9301 89.3356 96.9099C90.6153 95.8849 91.8541 94.8037 93.1902 93.893C93.1149 95.9683 93.5152 97.0241 95.7663 96.8851C98.2923 96.7289 101.343 94.872 103.376 93.6308C104.504 92.9417 105.525 91.9662 106.513 91.356C106.109 92.926 105.93 94.2117 107.873 94.3928C110.198 94.6094 113.502 93.2832 115.45 92.1746C116.034 91.8417 116.45 91.6062 116.986 91.2549C117.487 90.927 118.2 90.612 118.245 89.9956C117.719 90.0296 117.295 90.4954 116.906 90.766C115.667 91.6289 114.375 92.2539 112.916 92.8195C111.023 93.5537 106.784 94.2213 108.883 90.9446C109.161 90.5092 109.467 90.0994 109.763 89.7783C111.178 88.2428 109.745 86.8514 107.836 89.1895C107.528 89.5675 107.232 90.0503 106.941 90.342C105.947 91.3386 104.749 92.092 103.604 92.9387C101.467 94.5163 94.2349 98.6893 95.5786 92.6071C95.7991 91.6089 96.1041 91.4276 96.7895 90.8502L100.529 87.5291C101.932 86.3339 105.471 82.8078 106.626 81.5531C106.97 81.1802 107.316 80.9253 107.659 80.5421L109.552 78.4413C111.315 76.594 118.958 67.5157 112.818 68.3391C111.881 68.4648 110.782 69.1318 110.074 69.5695C104.112 73.2542 95.8515 84.8795 93.7702 91.5238C93.6495 91.9093 93.4823 92.7423 93.3572 93.0488C93.1829 93.4759 90.5441 95.426 90.0048 95.8399C86.5659 98.4788 78.0412 105.084 73.4077 105.389C71.7632 105.497 71.1508 105.108 71.1488 103.512C71.1422 98.2998 77.8084 89.2846 80.9035 85.1477C82.7909 82.6253 84.8521 80.3086 86.8915 77.9424C87.0728 77.7322 87.1672 77.5769 87.3488 77.3709C87.5348 77.1599 87.6694 77.0817 87.8725 76.8764C89.3289 75.4042 90.6198 73.8407 92.2571 72.3565C93.0024 71.6808 93.5301 70.7189 94.6298 70.6405C97.9706 70.4025 101.57 69.8255 104.557 68.5717C106.586 67.7201 111.126 65.4174 110.616 62.5948C110.363 61.1915 109.177 61.3251 108.289 60.9424Z" fill="url(#paint2_linear_23_727)"/>
<path d="M240.072 80.9666C240.295 80.5353 240.476 80.5003 240.781 80.1312L242.967 77.8123C243.508 77.2958 243.902 76.948 244.472 76.3522C246.079 74.6761 250.812 71.2451 252.939 69.875C255.129 68.4668 258.237 66.9546 261.044 65.9966C263.058 65.309 269.081 63.6745 270.941 65.025C273.321 66.752 267.439 70.7538 266.389 71.418C260.24 75.3086 247.386 80.869 240.072 80.9666ZM230.231 77.8774C229.255 75.9113 229.764 74.126 230.725 72.4673C231.712 70.7666 232.716 69.8275 233.911 68.6948C235.623 67.0708 241.175 63.7053 243.332 64.3193C244.824 64.7435 242.802 66.9547 242.336 67.4895L230.231 77.8774ZM230.57 78.297C230.924 77.7922 238.368 71.9282 239.708 70.5874C240.032 70.2632 240.371 70.0813 240.694 69.7305C241.378 68.9908 241.814 68.5919 242.537 67.8918C243.501 66.9576 245.884 63.7759 242.738 63.7028C238.814 63.6114 233.093 67.7437 230.912 70.6106C229.138 72.9398 227.658 75.7925 229.27 78.7052C228.953 79.1873 226.44 81.2236 225.754 81.9151C225.289 82.3833 225.057 82.6122 224.605 83.0145C222.637 84.7649 219.859 87.6428 217.85 89.6627L214.687 93.1496C211.423 96.6704 206.569 103.321 204.919 107.828C203.485 111.745 202.878 114.729 205.434 118.181C206.878 120.129 208.211 119.039 208.124 118.641C207.694 117.996 206.018 118.048 205.429 117.065C202.025 111.374 207.53 103.179 210.741 98.7156C211.081 98.2409 211.347 97.9181 211.68 97.51C212.036 97.0762 212.256 96.747 212.575 96.358C213.222 95.5683 213.87 94.788 214.532 94.0165L215.558 92.8978C215.777 92.6719 215.862 92.4995 216.066 92.2761C218.21 89.9363 220.651 87.4231 222.941 85.2374L225.145 83.1433C225.547 82.7881 225.836 82.4506 226.255 82.1043C227.014 81.477 228.9 79.6195 229.602 79.1447C231.65 81.282 233.387 81.7437 236.623 82.0361C236.569 82.28 234.905 84.3995 234.538 84.9387C232.476 87.9677 230.547 91.0193 229.16 94.5905C228.256 96.9199 227.253 100.26 227.832 103.045C229.562 111.377 244.679 102.038 248.098 99.9651C250.196 98.6929 252.313 97.2562 254.171 95.9036C255.392 95.0134 257.95 93.0667 259.1 92.0288C259.404 91.7549 259.419 91.6835 259.749 91.4799C259.632 92.0683 259.197 93.2695 259.868 93.7086C260.48 94.1097 261.593 93.6591 262.082 93.3668C264.148 92.1318 264.16 90.4688 264.991 90.7744C265.254 90.9816 265.263 91.0878 265.57 91.2985C265.75 91.4229 266.004 91.577 266.226 91.6691C267.41 92.16 268.53 91.7235 269.538 91.0902C270.267 90.6327 270.608 90.5166 270.666 90.0001C270.147 90.0143 270.145 90.1509 269.803 90.434C267.677 92.1924 265.274 91.248 264.906 89.2082C264.815 88.7069 264.775 87.4237 263.926 87.9489C263.492 88.2171 264.131 88.589 263.844 89.9145C263.647 90.8272 262.743 92.6179 261.885 92.318C261.533 91.5932 262.398 90.5736 262.77 90.2713C264.518 88.8514 262.923 87.2907 261.163 89.2864C260.939 89.5387 260.714 89.8851 260.478 90.1364C258.905 91.8142 254.721 94.9619 252.998 96.1662C250.678 97.7883 248.27 99.3795 245.629 100.88C243.346 102.177 240.04 103.89 237.265 104.597C226.437 107.355 229.959 96.6968 232.721 91.5016C234.123 88.864 235.808 86.3224 237.444 84.1555C239.454 81.4911 238.667 82.2114 241.235 81.9191C248.796 81.0586 257.513 77.39 263.516 73.8673C266.012 72.4025 268.947 70.4949 270.396 68.6671C271.707 67.0137 273.306 64.1681 270.182 62.924C264.972 60.8497 253.667 67.1394 250.249 69.4411C247.965 70.9799 246.989 71.8476 245.051 73.356C243.933 74.2275 242.942 75.2875 241.941 76.2802C241.041 77.1729 238.138 80.0297 237.641 80.9877C234.784 81.0437 231.563 79.9234 230.57 78.297Z" fill="url(#paint3_linear_23_727)"/>
<path d="M171.423 74.1803C169.88 76.0817 168.308 78.0987 166.831 80.1254C163.269 85.0133 160.366 89.011 156.659 93.6832L154.84 95.8574C152.936 97.8809 151.871 99.1166 149.609 101.161C147.208 103.332 143.909 105.551 140.687 106.676C138.104 107.576 134.167 108.049 132.132 106.308C131.373 105.658 130.628 104.112 130.446 102.682C129.952 98.7759 132.477 94.0586 135.493 92.0107C137.316 90.7719 140.884 89.0808 143.675 90.2254C148.391 92.1598 146.446 101.192 141.916 101.471C139.259 101.635 139.54 103.497 141.493 102.785C143.027 102.225 144.915 100.452 145.836 99.2452C147.408 97.187 148.267 93.8847 146.729 91.2718C144.041 86.7074 136.323 89.2975 132.81 93.8328C129.523 98.0768 127.973 105.511 134.082 107.837C136.926 108.919 140.345 108.347 143.032 107.377C147.097 105.91 149.721 103.726 152.517 100.995C155.176 98.3973 156.427 96.9472 158.724 94.0039L160.999 91.0623C164.936 85.8676 169.204 79.4974 173.512 74.6251L174.77 73.2252C175.748 72.0145 177.606 70.4324 178.733 69.3087C180.032 68.0143 182.482 66.5907 182.898 65.4919C183.13 64.8782 183.219 63.714 182.369 63.8411C181.607 63.9549 179.384 66.3563 177.709 67.1672C172.055 69.9048 161.069 71.6707 157.567 76.007C157.091 76.5962 155.632 78.3706 156.214 79.5829C157.6 79.9175 157.235 77.7366 157.539 77.0005C157.858 76.2295 158.816 75.484 159.435 75.0098C162.187 72.9002 167.198 71.5189 170.663 70.5673C172.175 70.1522 176.232 68.6579 176.465 68.607L171.423 74.1803Z" fill="url(#paint4_linear_23_727)"/>
<path d="M167.744 89.7308C167.788 89.6111 168.854 88.103 167.532 87.6864C166.617 87.398 166.209 88.4633 165.91 89.0071C165.656 89.4668 163.886 92.6362 163.913 92.8938C163.994 93.6737 165.655 93.0839 166.002 92.775C166.429 92.3959 166.635 91.5024 167.135 90.9428C167.654 90.3627 169.756 88.3723 170.608 88.5269C170.761 90.149 166.549 93.9037 167.21 96.3075C170.264 97.3006 176.308 92.1193 177.424 91.5567C176.968 93.4278 176.826 94.6913 179.145 94.7386C180.539 94.7671 182.476 94.1818 183.711 93.7608C185.798 93.0491 187.578 92.2462 189.455 91.2101C190.12 90.8432 191.001 90.4679 190.725 90.0095C190.509 89.9688 189.172 90.8469 188.774 91.0434C188.079 91.3867 187.427 91.7003 186.677 92.0152C185.266 92.6066 183.652 93.214 182.086 93.5665C177.513 94.5956 177.428 93.2311 179.769 90.2432C180.031 89.9091 180.985 88.9199 181.37 88.8319C181.201 89.2198 180.735 89.5884 180.876 89.9523C181.052 90.4064 181.763 90.4227 182.104 90.1207C182.621 89.6618 183.375 88.1056 182.21 87.8915C180.479 87.573 178.673 89.853 177.773 90.6078C176.475 91.696 175.124 92.7042 173.551 93.6516C172.796 94.1057 169.545 96.1782 168.455 95.5761C167.629 94.1051 172.36 89.8301 171.679 87.7729C170.536 87.4222 169.396 88.4626 168.563 89.0955C168.249 89.3338 168.067 89.5756 167.744 89.7308Z" fill="url(#paint5_linear_23_727)"/>
<path d="M191.549 93.9228C190.196 93.4101 189.541 95.959 189.922 96.3679C190.785 97.2931 191.919 94.8774 191.549 93.9228Z" fill="url(#paint6_linear_23_727)"/>
<path d="M68.4452 85.1379C68.0159 85.7164 68.0707 85.6019 67.777 86.4802C67.1901 88.2358 69.3004 87.218 69.5612 86.107C69.7467 85.3178 69.1649 85.0352 68.4452 85.1379Z" fill="url(#paint7_linear_23_727)"/>
<path d="M111.215 85.1385C110.982 85.4522 110.988 85.3351 110.822 85.7303C109.586 88.6714 112.08 87.1758 112.33 86.1076C112.516 85.3185 111.935 85.0358 111.215 85.1385Z" fill="url(#paint8_linear_23_727)"/>
<path d="M19.4793 98.9418C18.2425 99.3182 14.7224 98.7952 13.4943 98.4167C7.33235 96.5175 6.82501 90.5885 8.92973 85.1756C9.58533 83.4897 10.2023 82.0015 11.0895 80.687C12.077 79.2238 12.5181 78.8765 13.281 77.8701L15.7025 75.2785C17.4605 73.7422 19.3714 72.2933 21.4494 71.1963C22.867 70.4481 24.5512 69.7404 26.283 69.3811C28.1466 68.9943 30.6318 69.0863 31.9553 70.0387C34.4722 71.8499 35.7229 75.587 34.2598 79.7619C32.9595 83.4724 30.9864 85.3734 28.327 87.1283C26.578 88.2823 23.4657 89.657 21.1873 89.9089C20.3524 90.0011 18.8681 89.3499 18.6674 90.2361C19.5386 91.3369 23.7295 89.6737 24.8925 89.4098C23.9158 90.5884 23.0963 90.7352 21.3682 93.3695C20.6234 94.5047 19.987 95.9322 19.7056 97.3343C19.603 97.8458 19.6197 98.5075 19.4793 98.9418ZM111.214 85.1389C110.981 85.4525 110.988 85.3354 110.821 85.7307C109.585 88.6717 112.079 87.1761 112.33 86.108C112.515 85.3188 111.934 85.0361 111.214 85.1389ZM68.4449 85.1389C68.0155 85.7174 68.0703 85.6028 67.7766 86.4812C67.1897 88.2368 69.2999 87.2191 69.5609 86.108C69.7463 85.3188 69.1646 85.0361 68.4449 85.1389ZM191.546 93.9234C190.194 93.4107 189.538 95.9596 189.921 96.3685C190.783 97.2938 191.918 94.878 191.546 93.9234ZM167.742 89.7317C167.787 89.6121 168.853 88.104 167.53 87.6873C166.615 87.399 166.208 88.4643 165.909 89.0081C165.655 89.4678 163.885 92.6372 163.912 92.8948C163.992 93.6747 165.654 93.0848 166.002 92.7759C166.428 92.3969 166.634 91.5033 167.134 90.9436C167.652 90.3638 169.754 88.3733 170.607 88.5279C170.76 90.1499 166.547 93.9046 167.208 96.3084C170.263 97.3014 176.307 92.1203 177.424 91.5576C176.966 93.4288 176.826 94.6922 179.144 94.7395C180.537 94.7681 182.475 94.1828 183.71 93.7618C185.797 93.0501 187.576 92.2471 189.453 91.211C190.119 90.8441 191 90.469 190.725 90.0106C190.508 89.9697 189.171 90.8478 188.773 91.0444C188.078 91.3877 187.426 91.7013 186.675 92.016C185.265 92.6076 183.651 93.215 182.084 93.5675C177.512 94.5965 177.427 93.2321 179.768 90.2442C180.03 89.9101 180.983 88.9209 181.368 88.8328C181.2 89.2208 180.734 89.5894 180.875 89.9533C181.051 90.4073 181.762 90.4236 182.103 90.1217C182.62 89.6628 183.374 88.1065 182.209 87.8925C180.479 87.5741 178.672 89.8539 177.772 90.6088C176.474 91.6968 175.124 92.7053 173.551 93.6525C172.796 94.1066 169.544 96.1792 168.454 95.5771C167.628 94.1061 172.359 89.831 171.678 87.7739C170.535 87.4233 169.395 88.4636 168.561 89.0966C168.249 89.3347 168.066 89.5766 167.742 89.7317ZM171.421 74.1809C169.879 76.0822 168.307 78.0992 166.83 80.1259C163.267 85.0139 160.365 89.0114 156.658 93.6837L154.84 95.8578C152.935 97.8812 151.87 99.1171 149.609 101.161C147.207 103.332 143.908 105.552 140.686 106.676C138.103 107.577 134.167 108.049 132.132 106.308C131.373 105.659 130.626 104.113 130.445 102.683C129.951 98.7763 132.476 94.0589 135.491 92.0112C137.316 90.7724 140.883 89.0813 143.674 90.226C148.39 92.1604 146.445 101.192 141.916 101.471C139.259 101.635 139.539 103.498 141.492 102.785C143.026 102.226 144.914 100.452 145.835 99.2456C147.407 97.1873 148.266 93.8852 146.727 91.2721C144.04 86.7078 136.322 89.2979 132.809 93.8332C129.522 98.0774 127.972 105.512 134.081 107.837C136.925 108.92 140.344 108.347 143.031 107.378C147.096 105.911 149.72 103.727 152.516 100.995C155.175 98.3977 156.426 96.9476 158.723 94.0043L160.998 91.0627C164.934 85.868 169.204 79.498 173.511 74.6255L174.769 73.2257C175.748 72.0151 177.604 70.4328 178.732 69.3092C180.03 68.0148 182.481 66.5912 182.897 65.4924C183.129 64.8787 183.217 63.7145 182.368 63.8415C181.605 63.9555 179.383 66.3569 177.707 67.1677C172.054 69.9053 161.068 71.6712 157.566 76.0075C157.09 76.5966 155.632 78.3711 156.213 79.5833C157.598 79.918 157.234 77.7371 157.538 77.001C157.857 76.23 158.815 75.4845 159.434 75.0103C162.187 72.9007 167.196 71.5195 170.662 70.5677C172.174 70.1528 176.232 68.6583 176.464 68.6075L171.421 74.1809ZM240.072 80.9667C240.296 80.5353 240.476 80.5003 240.781 80.1312L242.967 77.8124C243.508 77.2958 243.902 76.948 244.472 76.3523C246.079 74.6761 250.812 71.2451 252.939 69.8751C255.129 68.4668 258.237 66.9546 261.044 65.9966C263.058 65.3091 269.081 63.6746 270.941 65.025C273.321 66.752 267.439 70.7539 266.389 71.418C260.24 75.3086 247.386 80.869 240.072 80.9667ZM230.232 77.8775C229.255 75.9113 229.764 74.1261 230.725 72.4674C231.712 70.7666 232.716 69.8276 233.911 68.6949C235.623 67.0709 241.175 63.7053 243.333 64.3193C244.824 64.7435 242.802 66.9548 242.336 67.4896L230.232 77.8775ZM230.57 78.297C230.924 77.7923 238.368 71.9283 239.708 70.5874C240.032 70.2632 240.371 70.0814 240.694 69.7306C241.379 68.9908 241.814 68.5919 242.537 67.8919C243.501 66.9576 245.884 63.7759 242.738 63.7028C238.814 63.6115 233.093 67.7437 230.912 70.6107C229.139 72.9399 227.658 75.7926 229.27 78.7052C228.953 79.1874 226.44 81.2236 225.754 81.9152C225.289 82.3834 225.057 82.6122 224.605 83.0145C222.637 84.7649 219.859 87.6428 217.85 89.6628L214.688 93.1496C211.424 96.6704 206.569 103.321 204.919 107.828C203.486 111.745 202.878 114.729 205.435 118.181C206.878 120.129 208.211 119.039 208.125 118.641C207.694 117.996 206.019 118.048 205.43 117.065C202.025 111.374 207.53 103.179 210.741 98.7156C211.081 98.241 211.347 97.9181 211.681 97.51C212.036 97.0762 212.256 96.747 212.575 96.358C213.222 95.5683 213.87 94.788 214.532 94.0166L215.559 92.8978C215.777 92.6719 215.862 92.4995 216.066 92.2761C218.21 89.9363 220.651 87.4231 222.941 85.2374L225.145 83.1434C225.547 82.7881 225.836 82.4506 226.255 82.1044C227.014 81.477 228.9 79.6195 229.602 79.1447C231.65 81.2821 233.387 81.7438 236.623 82.0361C236.569 82.2801 234.906 84.3995 234.538 84.9388C232.476 87.9677 230.547 91.0194 229.16 94.5905C228.256 96.9199 227.253 100.26 227.832 103.045C229.562 111.377 244.679 102.038 248.098 99.9651C250.196 98.6929 252.314 97.2562 254.171 95.9036C255.392 95.0134 257.95 93.0667 259.1 92.0288C259.404 91.755 259.419 91.6835 259.749 91.4799C259.632 92.0684 259.197 93.2695 259.868 93.7086C260.48 94.1097 261.593 93.6591 262.082 93.3668C264.148 92.1318 264.16 90.4688 264.991 90.7744C265.254 90.9817 265.263 91.0878 265.57 91.2985C265.75 91.4229 266.004 91.5771 266.226 91.6691C267.41 92.16 268.53 91.7236 269.538 91.0903C270.267 90.6327 270.608 90.5166 270.666 90.0001C270.147 90.0144 270.145 90.1509 269.803 90.4341C267.677 92.1924 265.274 91.2481 264.906 89.2082C264.815 88.7069 264.775 87.4238 263.926 87.9489C263.492 88.2172 264.131 88.589 263.844 89.9146C263.647 90.8272 262.743 92.6179 261.885 92.318C261.533 91.5932 262.398 90.5736 262.77 90.2713C264.518 88.8514 262.923 87.2907 261.163 89.2864C260.939 89.5387 260.714 89.8852 260.479 90.1364C258.905 91.8142 254.721 94.9619 252.998 96.1662C250.678 97.7884 248.27 99.3795 245.629 100.88C243.346 102.177 240.04 103.89 237.265 104.597C226.437 107.355 229.96 96.6968 232.721 91.5017C234.123 88.8641 235.808 86.3224 237.444 84.1555C239.454 81.4912 238.667 82.2115 241.235 81.9192C248.796 81.0587 257.513 77.39 263.516 73.8673C266.012 72.4026 268.947 70.4949 270.396 68.6671C271.707 67.0138 273.306 64.1682 270.182 62.9241C264.972 60.8498 253.667 67.1395 250.249 69.4411C247.965 70.9799 246.989 71.8477 245.051 73.3561C243.933 74.2275 242.942 75.2875 241.941 76.2802C241.041 77.1729 238.138 80.0298 237.641 80.9878C234.784 81.0437 231.563 79.9235 230.57 78.297ZM96.1983 90.7141C96.4173 89.4553 98.9552 85.2181 99.6135 84.1713C100.949 82.0476 102.305 80.1691 103.728 78.3656C105.22 76.4744 106.779 74.5831 108.393 73.1065C108.781 72.7514 113.273 68.5236 114.451 69.5959C115.548 70.5949 110.859 76.4107 109.967 77.328L107.62 79.8894C106.615 81.0582 106.143 81.4173 105.135 82.4196L96.1983 90.7141ZM97.8488 67.4087C98.9233 66.5555 100.059 65.6796 101.283 64.9058C109.738 59.5621 112.379 62.1232 108.233 65.9031C105.818 68.1049 97.9628 70.2634 94.69 70.0749L97.8488 67.4087ZM108.288 60.9431H106.912C106.883 60.9578 106.846 60.9714 106.822 60.9802L106.467 61.0934C101.495 62.322 97.6958 65.2059 93.9147 68.3908C92.0983 69.9209 92.4609 70.2602 90.3278 70.1204C84.6883 69.7504 79.169 68.1549 73.4799 69.2906C71.1979 69.746 69.8264 70.3841 68.3536 71.5353C67.7547 72.0033 64.9907 74.4763 65.554 76.0033C66.5476 76.1419 66.8578 74.3159 67.2324 73.479C67.6157 72.6223 68.5782 71.8965 69.3468 71.4032C73.2444 68.9015 79.1358 69.2732 83.6995 69.8934C84.9441 70.0624 86.1532 70.2495 87.4009 70.4011C88.5458 70.5404 90.1596 70.5652 91.2152 70.7696C89.5712 72.2566 87.8518 74.1148 86.3263 75.8492C86.0992 76.1073 85.8882 76.2521 85.6659 76.5146C83.5489 79.0128 81.4438 81.392 79.4465 84.0062C78.3285 85.4693 77.2482 86.8484 76.2448 88.3728C75.9282 88.8536 75.63 89.3424 75.2521 89.8292C74.2028 91.1803 70.4599 92.8815 68.6583 93.2657C67.2147 93.5736 65.0082 93.7681 65.7468 91.7073C66.1279 90.6437 67.6995 89.3022 67.5346 88.5364C67.3582 87.7176 66.3058 87.9562 65.8681 88.3532C64.7454 89.371 63.0127 91.6002 63.5167 93.3404C64.2027 95.7093 69.5596 93.6196 71.025 92.976C71.6628 92.6958 72.1724 92.4617 72.7441 92.1381C73.2745 91.8382 73.7497 91.4729 74.3097 91.2419C74.0446 91.878 73.4168 92.7349 73.0182 93.4289C71.7055 95.7154 70.4292 97.8018 69.7518 100.493C68.2975 106.272 72.3682 106.716 76.6666 104.92C79.7025 103.652 82.8203 101.721 85.3913 99.8231C86.7845 98.795 88.0614 97.9305 89.3349 96.9104C90.6147 95.8855 91.8533 94.8043 93.1895 93.8936C93.1142 95.9689 93.5145 97.0247 95.7656 96.8855C98.2916 96.7296 101.342 94.8726 103.375 93.6314C104.503 92.9421 105.524 91.9667 106.512 91.3567C106.109 92.9267 105.929 94.2122 107.873 94.3934C110.198 94.61 113.501 93.2838 115.449 92.1752C116.033 91.8423 116.449 91.6068 116.986 91.2554C117.486 90.9275 118.199 90.6126 118.244 89.9961C117.719 90.0302 117.294 90.4959 116.905 90.7666C115.667 91.6294 114.375 92.2545 112.916 92.8201C111.022 93.5543 106.783 94.2218 108.882 90.9453C109.161 90.5098 109.466 90.0999 109.762 89.7789C111.177 88.2434 109.744 86.8521 107.835 89.1901C107.527 89.5681 107.231 90.0509 106.94 90.3427C105.946 91.3391 104.749 92.0926 103.603 92.9391C101.467 94.5168 94.2343 98.6899 95.5779 92.6076C95.7983 91.6095 96.1035 91.4281 96.7887 90.8508L100.528 87.5296C101.932 86.3346 105.47 82.8084 106.626 81.5538C106.969 81.1807 107.316 80.926 107.659 80.5426L109.552 78.442C111.314 76.5946 118.958 67.5163 112.818 68.3398C111.881 68.4654 110.781 69.1324 110.073 69.5702C104.111 73.2548 95.8509 84.8801 93.7695 91.5244C93.6489 91.9099 93.4815 92.7428 93.3565 93.0494C93.1823 93.4764 90.5434 95.4266 90.0041 95.8403C86.5652 98.4793 78.0406 105.084 73.4071 105.389C71.7626 105.497 71.1502 105.108 71.1482 103.513C71.1415 98.3004 77.8077 89.2851 80.903 85.1484C82.7903 82.6259 84.8514 80.3091 86.8908 77.9431C87.072 77.7328 87.1666 77.5775 87.3482 77.3716C87.5342 77.1605 87.6687 77.0824 87.8718 76.8771C89.3281 75.4048 90.6192 73.8414 92.2563 72.3573C93.0017 71.6814 93.5294 70.7195 94.6291 70.6412C97.97 70.4031 101.569 69.8261 104.556 68.5725C106.586 67.7206 111.125 65.4182 110.615 62.5955C110.362 61.1923 109.176 61.3258 108.288 60.9431ZM49.9184 82.2553C49.8979 83.648 51.4354 82.5476 53.4924 82.2533C58.0283 81.6046 62.9377 82.6297 59.9101 88.7568C58.2694 92.0773 53.0202 96.839 49.842 98.7402C45.2944 101.461 41.0102 103.361 35.6401 104.612C31.4378 105.59 22.3527 106.677 20.7621 100.93C28.1039 99.9408 34.1942 95.4505 39.2991 91.2055C39.5229 91.0194 39.6517 90.8506 39.8781 90.6636C42.3488 88.6246 46.716 84.2487 48.9377 82.0185L57.5035 74.109C59.1141 72.6873 62.6613 70.3679 64.7716 69.6481C64.8622 72.954 61.7575 76.1399 59.2937 77.8326C57.2936 79.2066 54.8768 80.529 52.4832 81.3618C51.6862 81.6391 50.5864 81.9265 49.9184 82.2553ZM65.4649 67.6849C64.2661 64.6869 60.873 63.5957 56.7207 64.1594C52.9406 64.6728 50.3222 65.8588 47.5815 67.5014C45.9414 68.4843 43.5508 70.2969 42.3076 71.6409C40.1555 73.9676 37.1198 78.3393 37.2703 82.1813C37.3322 83.7614 38.4035 83.4932 38.3569 82.2794C38.3357 81.7273 38.0806 81.4611 38.0694 80.8516C38.0405 79.2714 39.4972 76.3078 40.2037 75.1613C43.2062 70.29 49.3981 66.2408 55.1862 65.1669C58.2633 64.5959 63.0132 64.6628 64.2745 68.0888C63.802 68.42 63.2073 68.5967 62.6822 68.855C59.1505 70.5924 56.6258 72.6502 53.7132 75.1372C51.764 76.8016 46.8612 81.4304 45.3218 83.1147L43.5776 84.7484C43.1049 85.1769 42.8681 85.4101 42.3882 85.91L39.9118 88.1442C39.475 88.597 39.1704 88.8116 38.6908 89.2735C38.3558 89.5963 37.8016 90.028 37.4083 90.3497C32.6558 94.2388 27.2248 98.1719 20.3736 98.9151C20.4554 94.3961 23.4001 90.9707 27.0286 88.8986C28.762 87.9087 30.8791 87.0536 33.1512 86.6287C33.9954 86.4708 36.2327 86.1389 36.9564 86.4997C37.4081 86.7249 37.4937 87.1197 38.2375 87.2796C39.8796 87.6322 40.9624 86.0647 37.9077 85.6613C36.1035 85.4231 33.9564 85.5932 32.183 85.9678C31.3237 86.1495 30.5994 86.4438 29.825 86.6393C30.9963 85.5136 31.6884 85.0962 32.9458 83.5571C33.8332 82.4709 34.6866 81.2543 35.3159 79.6901C36.203 77.4847 36.6163 74.2616 35.439 71.9801C33.4354 68.0971 28.8633 67.5208 24.526 69.053C20.8912 70.3371 17.0202 73.1653 14.3328 75.957C12.7264 77.6257 12.2105 78.3008 10.8726 80.2693C9.33663 82.5292 7.82829 85.8323 7.36298 89.1333C6.60185 94.5327 8.83719 99.4602 14.2357 100.745C16.3743 101.254 17.7008 101.039 19.8476 101.077C20.5572 103.627 22.5828 105.522 24.9856 106.377C33.4037 109.373 47.4647 103.479 54.1486 97.9236L59.3503 92.7923C60.8319 91.0571 64.1556 86.4346 62.6471 83.8969C61.1693 81.4114 58.0036 81.4521 54.5774 81.5991L56.6073 80.5629C58.5349 79.568 60.3917 78.3991 61.9111 76.9673C63.8855 75.1066 65.6785 73.2956 65.8891 69.191C66.8363 68.9003 67.3083 68.4388 68.6181 68.33C69.2407 68.2782 69.6417 68.4086 70.1828 68.1458C70.5171 67.9835 70.9616 67.6582 70.7369 67.1747C69.5285 66.6585 66.661 67.4884 65.4649 67.6849Z" fill="url(#paint9_linear_23_727)"/>
<path d="M83.3989 47.7047C83.0192 47.5782 81.6405 48.1171 81.2201 48.2631C80.5896 48.4826 79.9813 48.7409 79.3866 49.0257C80.0875 49.0206 80.7869 49.0553 81.475 49.1696C81.7611 49.2349 82.0502 49.2952 82.3393 49.3503C83.1167 49.5994 83.4698 49.0502 83.3989 47.7047ZM79.6659 52.7084C79.6384 51.8271 78.175 50.868 77.1522 50.3133C77.3356 50.8651 77.5306 51.4124 77.7121 51.9656C77.8352 52.3401 77.8757 52.8955 78.1405 53.1944C78.2237 53.7043 78.5274 53.7355 79.0524 53.2881C79.7676 53.3073 79.9727 53.114 79.6659 52.7084ZM70.3389 52.3028C70.7223 53.8524 71.3899 55.2368 72.3921 56.5388C72.9985 57.8459 73.7053 57.6476 74.5142 55.9449C74.2219 55.4265 73.8629 54.9541 73.4369 54.5272C72.9363 53.997 72.3527 53.4543 71.7444 53.0362C71.1848 52.6509 70.7349 52.4739 70.3389 52.3028ZM69.8229 54.7058C69.7568 54.1248 69.6704 53.5473 69.5764 52.9712C68.9977 54.0397 68.3354 55.2671 68.6485 56.193C69.7429 57.4104 70.1761 57.3332 69.9487 55.9616C69.9187 55.5415 69.8766 55.1233 69.8229 54.7058ZM55.7705 49.5412C56.7818 50.7242 58.393 52.3536 59.8259 52.4943C61.4888 52.6577 60.2848 51.3711 59.6321 50.8141C58.6699 49.9929 57.153 49.2278 55.7705 49.5412ZM54.8797 54.2609C55.4566 52.9716 55.259 51.635 54.8857 50.3236C54.1662 51.6743 53.6476 53.0448 54.8797 54.2609ZM39.6434 49.7045C40.632 50.5502 41.6558 51.3395 42.7632 52.0492C43.4347 52.4794 45.0774 53.7831 45.9354 53.6546C47.6037 53.4047 45.0187 51.4633 44.4722 51.0393C43.3074 50.1353 41.257 48.6755 39.6434 49.7045ZM38.797 50.1246C38.6878 51.7605 38.5695 54.225 39.5825 55.0927C40.066 55.9463 40.2466 55.7317 40.1243 54.4489C40.1458 53.8529 40.0913 53.2639 39.9619 52.6815C39.7522 51.7394 39.3318 50.915 38.797 50.1246ZM23.5219 54.5933C24.8755 55.5438 26.1858 56.5956 27.6473 57.3602C29.2581 58.2025 29.3153 56.853 28.4572 56.0203C27.7155 55.3005 26.731 54.7937 25.6852 54.6012C24.9451 54.4651 24.2342 54.5303 23.5219 54.5933ZM23.7003 57.3601C23.4156 56.7297 23.082 56.1267 22.7353 55.53C22.4888 56.5881 22.2823 57.659 22.2506 58.7359C22.2307 59.4078 22.0547 60.5786 22.5004 61.0551C22.5303 61.5847 22.8976 61.6941 23.6013 61.3828C24.371 61.7023 24.7088 61.601 24.6155 61.0807C25.0799 60.3592 24.0074 58.0403 23.7003 57.3601ZM10.0782 49.5004C10.2462 49.7229 10.3821 49.9352 10.5042 50.1437C10.5944 49.7964 10.6972 49.4514 10.8166 49.1104C10.788 47.8446 10.4191 46.5645 10.0654 45.3854C9.73451 44.2819 10.0882 44.1033 8.56625 44.6729C7.45642 44.6729 7.14845 44.971 7.64104 45.5702C7.82049 45.9561 8.01781 46.3328 8.23283 46.7013C8.77754 47.6853 9.3987 48.6 10.0782 49.5004ZM11.6398 49.3003C11.6377 49.581 11.6174 49.8607 11.5804 50.1382C11.6703 50.0582 11.7555 49.9779 11.8516 49.8985C12.7999 49.1135 14.7289 48.1559 14.9771 46.8707C15.5007 46.1827 15.162 45.6764 13.9593 45.3507C13.7033 45.608 13.4752 45.8867 13.2769 46.1868C12.9238 46.6625 12.6124 47.1566 12.3424 47.6772C12.0701 48.2039 11.8409 48.748 11.6398 49.3003ZM20.6153 42.4363C20.7964 42.9937 21.196 43.5429 21.5725 44.0849C21.5761 44.0563 21.5783 44.0288 21.5822 44.0002C21.7268 42.915 22.3046 41.4451 22.1212 40.3875C22.1274 40.1925 22.134 39.9986 22.1403 39.8046C21.0025 39.0012 20.432 39.1002 20.4289 40.1007C20.12 40.8652 20.3762 41.6993 20.6153 42.4363ZM22.4842 45.0475C22.5974 44.9689 22.7174 44.8914 22.8508 44.8138C24.3055 43.9696 25.499 43.3652 26.2768 41.8156C26.5098 41.3491 26.6773 40.8652 26.7786 40.362C27.2063 39.5229 27.0365 39.1942 26.2694 39.3779C25.2324 39.3003 24.556 40.5182 24.051 41.2807C23.2769 42.4506 22.7293 43.7154 22.4842 45.0475ZM33.419 38.0233C33.452 38.6868 33.6509 39.3616 33.7921 40.0261C33.9653 39.6127 34.1965 39.1135 34.4705 38.5827C35.1049 36.7544 35.3775 34.8393 35.1953 32.9039C34.9198 29.9854 33.9815 33.4602 33.7632 34.3626C33.473 35.5652 33.3599 36.7993 33.419 38.0233ZM35.4244 38.3275C35.1241 39.2942 34.7319 40.2405 34.2482 41.1552C34.1754 41.293 34.0528 41.3522 33.9259 41.3593C33.9198 41.4512 33.9099 41.542 33.8944 41.6319C35.2658 40.3855 36.6926 39.1278 37.8228 37.7303C38.5161 37.2526 38.5406 36.8218 37.8974 36.44C37.6974 35.8551 37.4653 35.755 37.2032 36.1389C36.7124 36.3032 36.0804 37.3332 35.7982 37.7344C35.6622 37.9273 35.5433 38.1274 35.4244 38.3275ZM49.6552 39.2064C50.5529 37.2311 51.7509 33.9543 49.8971 33.9563C49.2326 33.6766 48.9711 33.8645 49.1119 34.5178C49.0591 34.8322 49.0327 35.1487 49.0325 35.4651C49.0116 36.0204 49.0345 36.5809 49.098 37.1311C49.1768 37.8222 49.4728 38.5194 49.6552 39.2064ZM50.4654 39.4912C50.4268 39.5708 50.3863 39.6495 50.3464 39.7291C50.5573 39.6831 50.7806 39.6484 51.0336 39.627C51.3854 39.6056 51.7384 39.5964 52.0904 39.5964C52.7957 38.2958 52.5945 37.9998 51.4861 38.7072C51.0795 38.9216 50.7418 39.184 50.4654 39.4912ZM64.651 40.512C65.7874 39.6811 66.7724 38.7675 67.628 37.666C68.0047 37.1811 68.3644 36.685 68.6619 36.1521C69.2008 35.1844 69.6647 34.8955 68.3632 34.628C67.0877 34.3657 66.9735 34.9179 66.3667 35.8745C66.0331 36.4002 65.763 36.932 65.5151 37.4965C65.0757 38.4949 64.8803 39.4749 64.651 40.512ZM66.6957 40.4294C66.1369 40.6345 65.6073 40.9183 65.0907 41.2113C65.6108 41.5441 66.3317 41.5216 66.9357 41.4808C67.873 41.4175 68.2974 41.5512 68.3878 40.6243C68.5086 39.3871 67.4376 40.1558 66.6957 40.4294ZM85.4965 48.4448C85.5209 49.6371 84.1818 50.2739 83.1054 50.259C82.0779 50.2452 81.0971 49.8699 80.0639 49.8291C79.384 49.8015 78.6951 49.827 78.0106 49.8903C79.5946 50.9014 81.5571 52.6915 80.4394 54.2916C79.8233 55.1731 78.5844 55.0162 77.8981 54.3592C76.8946 53.3996 76.5225 51.3517 76.166 50.0159C73.2193 48.9205 70.1952 47.9967 67.1203 47.2494C67.8189 47.9487 68.4504 48.7021 68.9783 49.5443C69.2619 49.997 69.4405 50.7042 69.8161 51.0641C70.2046 51.436 71.0636 51.6024 71.5493 51.8655C73.1971 52.7575 75.9428 55.1864 75.75 57.2421C75.6096 58.7365 74.0886 59.0952 72.9312 58.3331C72.0769 57.7701 71.3903 56.9033 70.8415 55.9313C70.8705 57.3742 70.5639 58.6058 69.4063 58.641C68.3041 58.6748 67.837 56.9962 67.8122 56.2163C67.7596 54.5339 68.738 53.1675 69.3325 51.6606C69.1808 51.5071 69.031 51.3273 68.8792 51.0781C67.91 49.4881 66.937 48.1018 65.4956 46.8738C64.1012 46.5665 62.699 46.2878 61.2877 46.0561C61.9954 46.9697 62.7354 47.8558 63.5177 48.7102C63.6407 48.6378 63.7689 48.5755 63.9071 48.5357C64.8678 48.2539 65.7993 48.7929 66.1021 49.6637C66.4038 50.5318 65.7662 51.5328 64.8697 51.7951C63.9088 52.0764 62.9773 51.5377 62.6746 50.6669C62.5104 50.1942 62.6306 49.6861 62.914 49.2748C61.9186 48.1896 60.9836 47.0586 60.1046 45.8805C57.094 45.4344 54.0537 45.1578 51.0032 45.0812C52.5221 46.1306 53.7955 47.4281 54.9382 48.8705C55.0136 48.8623 55.0883 48.8736 55.1577 48.9042C56.6869 48.355 58.3354 48.9001 59.6397 49.7882C60.3489 50.271 62.1325 51.7931 61.9287 52.8401C61.4797 55.1423 57.8128 52.4091 55.8347 50.6425C56.1926 52.1467 56.2573 53.6596 55.3755 55.1066C55.2284 55.3485 54.9319 55.3705 54.7207 55.2143C52.4956 53.5713 53.3341 51.5008 54.3949 49.5187C53.0161 47.7446 51.4527 46.1919 49.4442 45.068C47.4217 45.0608 45.3973 45.1292 43.3766 45.2956C43.3314 45.3048 43.2883 45.3119 43.2489 45.3068C40.6779 45.5243 38.1127 45.8836 35.5669 46.3981C35.4943 46.4124 35.4229 46.4308 35.3498 46.4461C36.8366 46.9534 38.0839 47.9099 39.1078 49.1196C40.4518 48.2049 41.9434 48.5377 43.3564 49.3146C44.5154 49.9528 45.5817 50.7999 46.4823 51.7383C46.9325 52.208 47.9872 53.0359 47.9242 53.7344C47.7061 56.1262 42.9672 53.1339 40.3653 51.2616C40.7777 52.2539 40.993 53.3124 40.9611 54.4253C40.9431 55.052 40.9881 56.3012 40.1684 56.5486C37.5958 57.3251 37.9685 50.2077 38.0147 49.3095C38.018 49.2564 38.034 49.2125 38.0512 49.1706C36.8541 47.912 35.315 46.9953 33.4693 46.8646C31.8302 47.2525 30.2082 47.7047 28.6069 48.2172C28.6034 48.2182 28.5995 48.2182 28.5955 48.2203C28.3174 48.3091 28.0389 48.3989 27.762 48.4908C28.2237 48.6827 28.6593 48.9409 29.0941 49.1727C29.4589 49.3666 29.8238 49.5606 30.1882 49.7556C30.3878 49.5667 30.6245 49.4166 30.89 49.3391C31.8155 49.0685 32.7129 49.5871 33.0045 50.4262C33.2951 51.2623 32.681 52.2267 31.8175 52.4795C30.8921 52.7501 29.9938 52.2317 29.703 51.3925C29.5928 51.0762 29.6129 50.7422 29.7265 50.4346C29.4583 50.2921 29.1903 50.1494 28.9222 50.0068C28.2445 49.6453 27.5441 49.1533 26.7615 49.0308C26.6636 49.0155 26.5987 48.9706 26.5484 48.9175C23.2841 50.0842 20.1229 51.509 17.1071 53.1798C17.6968 53.1538 18.2986 53.1866 18.9167 53.2701C19.9186 53.4058 20.8848 53.7397 21.8843 53.8613C22.8273 53.9761 23.7184 53.7209 24.6583 53.71C27.0891 53.6811 30.2669 55.4101 30.389 57.9637C30.3958 58.1041 30.3069 58.2373 30.1868 58.3137C28.436 59.4249 25.8601 57.5052 23.9754 56.0131C24.6777 57.3171 25.2559 58.6942 25.413 60.1565C25.516 61.119 25.5735 63.4266 24.2079 63.8325C22.7793 64.2569 21.961 62.214 21.6951 61.2906C21.0725 59.1291 21.5649 56.8176 22.0931 54.6516C21.8458 54.642 21.5977 54.622 21.3439 54.5732C19.1673 54.1535 17.0785 53.58 14.9519 54.4307C12.3001 56.0415 9.77758 57.8475 7.41331 59.8393C8.86112 59.9936 10.3088 60.1476 11.7562 60.3022C11.962 59.7393 12.4515 59.2569 13.0491 59.0823C14.0753 58.7816 15.0713 59.3576 15.3947 60.2877C15.7165 61.2155 15.0355 62.285 14.0773 62.565C13.0512 62.8657 12.0553 62.2908 11.7318 61.3595C11.7022 61.2731 11.689 61.1841 11.6763 61.0958C9.97779 60.915 8.27907 60.7344 6.58078 60.5531C4.5015 62.3733 2.54673 64.3323 0.754341 66.438C0.408789 66.8438 -0.189087 66.2981 0.152899 65.8962C2.4281 63.2226 4.95562 60.7699 7.68399 58.5532C7.68427 58.5519 7.6842 58.5509 7.6846 58.5498C8.45414 57.0679 8.93163 55.4619 9.58122 53.9314C10.2891 52.2622 10.1845 51.0752 9.16251 49.6841C8.63291 48.9644 8.14817 48.2366 7.70386 47.4628C6.91989 46.0959 5.31364 43.4847 7.39221 42.2719C9.73427 40.9051 10.6422 44.3799 11.0476 45.7488C11.2191 46.3287 11.37 46.932 11.4807 47.5424C11.7064 47.0953 11.9574 46.6594 12.2335 46.2409C12.7789 45.415 13.8593 43.6919 15.0913 43.9869C16.4655 44.3156 16.2086 46.3052 15.768 47.2066C14.7442 49.2993 12.2431 50.1098 11.0046 52.0375C10.979 52.5162 10.8545 53.0258 10.6278 53.6123C10.1422 54.8721 9.66596 56.1773 9.11488 57.4376C10.6322 56.2792 12.2017 55.1859 13.8247 54.1713C13.8555 54.1023 13.905 54.0378 13.9966 53.9905C14.1687 53.902 14.3418 53.8249 14.5145 53.752C14.9711 53.4748 15.4303 53.2021 15.8939 52.9364C15.9135 52.9024 15.9315 52.8684 15.9661 52.8364C17.1965 51.7013 18.4163 50.5501 19.5673 49.3401C20.2497 48.6245 21.2444 47.7088 21.4224 46.7248C21.5944 45.7733 20.8324 44.8832 20.4347 44.1115C19.6083 42.5098 18.7732 40.2048 20.1852 38.6133C21.0255 37.665 22.3111 37.4486 22.8469 38.6756C23.2188 39.527 22.9327 40.7969 22.8038 41.6819C22.797 41.7268 22.7897 41.7717 22.7829 41.8167C23.0698 41.2868 23.3973 40.7724 23.7672 40.2803C24.3071 39.5606 25.9155 37.3679 27.0965 37.8324C28.4297 38.3571 27.5015 41.1082 27.1199 41.9392C26.7179 42.814 26.1443 43.5867 25.3982 44.2278C24.6246 44.8914 22.8619 45.4242 22.4049 46.3838C22.2498 48.0569 20.5905 49.828 18.9797 51.2786C21.9442 49.7903 25.0289 48.5245 28.1993 47.5026C29.4298 46.0673 30.7359 44.6903 31.944 43.2387C32.8862 42.1076 33.0758 41.7319 32.8883 40.3324C32.8278 39.8802 32.7144 39.4422 32.6591 38.988C32.4781 37.4986 32.5559 35.9674 32.8794 34.4882C33.0947 33.5051 33.4098 31.6728 34.2457 30.9776C35.6668 29.7945 35.9482 31.9627 36.0315 32.8804C36.1343 34.0074 36.0863 35.1272 35.9138 36.2307C36.9665 34.8302 38.1693 33.9461 39.1195 35.0598C39.8102 35.8694 39.2715 37.0974 38.7515 37.8548C37.3338 39.9189 34.993 41.6482 33.1818 43.3979C33.0742 43.502 32.9509 43.5296 32.835 43.5132C31.8762 44.7444 30.7526 45.8928 29.6877 47.0524C30.8528 46.7064 32.0249 46.3848 33.2086 46.1051C33.2519 46.0816 33.3041 46.0684 33.364 46.0653C34.2498 45.857 35.1398 45.6672 36.0344 45.4957C36.9648 45.3191 37.8969 45.1649 38.8305 45.0261C38.8165 44.9475 38.8261 44.8618 38.8877 44.7709C39.7269 43.5377 40.6269 42.3475 41.589 41.2011C41.3841 41.0153 41.2194 40.7836 41.1248 40.511C40.8442 39.7025 41.4375 38.7715 42.272 38.5265C43.1671 38.2652 44.0352 38.7664 44.3169 39.577C44.5974 40.3855 44.0041 41.3175 43.1698 41.5625C42.8788 41.6472 42.5931 41.6451 42.327 41.5839C41.4259 42.6496 40.5811 43.7552 39.7904 44.8995C40.9298 44.7474 42.0706 44.6198 43.2119 44.5239C43.2164 44.5218 43.2189 44.5188 43.2232 44.5177C44.8061 43.9042 47.8567 42.3587 48.6687 40.8265C49.2262 39.775 48.387 38.2754 48.2613 37.1546C48.1393 36.0674 47.7859 33.1111 49.1709 32.4272C50.7267 31.6595 51.4881 33.6838 51.6026 34.7322C51.7237 35.8306 51.5035 36.9065 51.1284 37.9488C52.1354 37.2597 53.282 36.9545 54.0797 37.7303C54.5487 38.1866 54.5013 39.0145 54.1183 39.531C53.1032 40.8979 51.0997 40.0261 49.7969 40.7928C49.7829 40.8193 49.7694 40.8459 49.7556 40.8724C49.6957 40.9847 49.607 41.0449 49.5099 41.0704C49.1922 41.5584 48.6604 41.9432 48.1509 42.3812C47.2584 43.1478 46.3181 43.8134 45.3112 44.383C46.6834 44.3085 48.0558 44.2687 49.4267 44.2738C49.501 44.2452 49.5862 44.2493 49.6742 44.2768C50.7244 44.284 51.7729 44.3156 52.8203 44.3667C52.8373 44.3023 52.8689 44.238 52.9391 44.1788C53.971 43.3224 55.0025 42.4659 56.0349 41.6094C56.3035 41.3859 56.6397 41.0357 57 40.7009C56.9246 40.5886 56.8584 40.4702 56.8128 40.3385C56.5434 39.5627 57.1131 38.6674 57.9154 38.4326C58.7749 38.1805 59.6083 38.6623 59.8789 39.4412C60.1483 40.218 59.5786 41.1133 58.7767 41.3481C58.3745 41.4655 57.9804 41.4185 57.6443 41.2593C57.4679 41.4308 57.3062 41.5951 57.1825 41.6982C56.8183 42.0004 56.4545 42.3026 56.0898 42.6047C55.3608 43.2101 54.632 43.8154 53.9031 44.4208C54.8266 44.48 55.7487 44.5524 56.6686 44.6443C56.6828 44.6413 56.6922 44.6341 56.7069 44.6321C58.8395 44.333 61.2984 43.649 62.8542 42.0953C64.0244 40.9265 63.9262 39.2932 64.4746 37.8395C65.0556 36.2981 66.4209 33.1458 68.4256 32.8722C70.0379 32.6528 70.3418 34.3075 69.9393 35.4488C69.3866 37.0168 68.2207 38.4633 66.9107 39.6831C68.7881 39.1268 70.9351 38.894 70.2382 40.8601C69.5817 42.714 65.6529 42.766 64.2751 41.5839C63.3783 43.3254 61.2142 44.3575 59.1272 44.9342C61.3139 45.2252 63.484 45.6172 65.6341 46.0908C65.7078 46.0806 65.7838 46.0816 65.8584 46.1092C65.9224 46.1337 65.9868 46.1582 66.0513 46.1817C67.0943 46.4175 68.1334 46.6676 69.1659 46.9442C69.1869 46.8095 69.2712 46.6829 69.4476 46.6288C71.2432 46.0837 73.0452 45.561 74.8519 45.0537C74.7856 44.335 75.3261 43.598 76.0513 43.3856C76.9377 43.1264 77.7969 43.6235 78.0758 44.4269C78.3537 45.2272 77.7664 46.15 76.9393 46.392C76.2345 46.5982 75.5511 46.3215 75.159 45.7958C73.5038 46.2603 71.8532 46.7401 70.2078 47.2362C72.3501 47.8405 74.4658 48.5245 76.5453 49.2972C76.5731 49.2839 76.6005 49.2717 76.6348 49.2656C76.901 49.2227 77.1705 49.1921 77.4393 49.1584C79.5556 47.9712 85.4267 45.1027 85.4965 48.4448Z" fill="url(#paint10_linear_23_727)"/>
</g>
<defs>
<linearGradient id="paint0_linear_23_727" x1="336.923" y1="-92.9973" x2="201.818" y2="162.406" gradientUnits="userSpaceOnUse">
<stop stop-color="white"/>
<stop offset="0.140625" stop-color="#FAE07D"/>
<stop offset="0.257813" stop-color="#FCF2A8"/>
<stop offset="0.359375" stop-color="#FAE07D"/>
<stop offset="0.492188" stop-color="#BA8226"/>
<stop offset="0.609375" stop-color="#FAE07D"/>
<stop offset="0.71875" stop-color="#FCF2A8"/>
<stop offset="0.835938" stop-color="#FAE07D"/>
<stop offset="1" stop-color="#BA8226"/>
</linearGradient>
<linearGradient id="paint1_linear_23_727" x1="58.75" y1="58.043" x2="19.5126" y2="113.332" gradientUnits="userSpaceOnUse">
<stop stop-color="#BA8226"/>
<stop offset="0.140625" stop-color="#FAE07D"/>
<stop offset="0.257813" stop-color="#FCF2A8"/>
<stop offset="0.359375" stop-color="#FAE07D"/>
<stop offset="0.492188" stop-color="#BA8226"/>
<stop offset="0.609375" stop-color="#FAE07D"/>
<stop offset="0.71875" stop-color="#FCF2A8"/>
<stop offset="0.835938" stop-color="#FAE07D"/>
<stop offset="1" stop-color="#BA8226"/>
</linearGradient>
<linearGradient id="paint2_linear_23_727" x1="109.221" y1="57.7361" x2="72.6811" y2="109.224" gradientUnits="userSpaceOnUse">
<stop stop-color="#BA8226"/>
<stop offset="0.140625" stop-color="#FAE07D"/>
<stop offset="0.257813" stop-color="#FCF2A8"/>
<stop offset="0.359375" stop-color="#FAE07D"/>
<stop offset="0.492188" stop-color="#BA8226"/>
<stop offset="0.609375" stop-color="#FAE07D"/>
<stop offset="0.71875" stop-color="#FCF2A8"/>
<stop offset="0.835938" stop-color="#FAE07D"/>
<stop offset="1" stop-color="#BA8226"/>
</linearGradient>
<linearGradient id="paint3_linear_23_727" x1="424.399" y1="0.339751" x2="349.982" y2="105.199" gradientUnits="userSpaceOnUse">
<stop stop-color="#BA8226"/>
<stop offset="0.140625" stop-color="#FAE07D"/>
<stop offset="0.257813" stop-color="#FCF2A8"/>
<stop offset="0.359375" stop-color="#FAE07D"/>
<stop offset="0.492188" stop-color="#BA8226"/>
<stop offset="0.609375" stop-color="#FAE07D"/>
<stop offset="0.71875" stop-color="#FCF2A8"/>
<stop offset="0.835938" stop-color="#FAE07D"/>
<stop offset="1" stop-color="#BA8226"/>
</linearGradient>
<linearGradient id="paint4_linear_23_727" x1="191.465" y1="51.7945" x2="151.487" y2="108.126" gradientUnits="userSpaceOnUse">
<stop stop-color="#BA8226"/>
<stop offset="0.140625" stop-color="#FAE07D"/>
<stop offset="0.257813" stop-color="#FCF2A8"/>
<stop offset="0.359375" stop-color="#FAE07D"/>
<stop offset="0.492188" stop-color="#BA8226"/>
<stop offset="0.609375" stop-color="#FAE07D"/>
<stop offset="0.71875" stop-color="#FCF2A8"/>
<stop offset="0.835938" stop-color="#FAE07D"/>
<stop offset="1" stop-color="#BA8226"/>
</linearGradient>
<linearGradient id="paint5_linear_23_727" x1="209.415" y1="73.7501" x2="195.431" y2="93.4536" gradientUnits="userSpaceOnUse">
<stop stop-color="#BA8226"/>
<stop offset="0.140625" stop-color="#FAE07D"/>
<stop offset="0.257813" stop-color="#FCF2A8"/>
<stop offset="0.359375" stop-color="#FAE07D"/>
<stop offset="0.492188" stop-color="#BA8226"/>
<stop offset="0.609375" stop-color="#FAE07D"/>
<stop offset="0.71875" stop-color="#FCF2A8"/>
<stop offset="0.835938" stop-color="#FAE07D"/>
<stop offset="1" stop-color="#BA8226"/>
</linearGradient>
<linearGradient id="paint6_linear_23_727" x1="219.602" y1="85.5146" x2="217.611" y2="88.3212" gradientUnits="userSpaceOnUse">
<stop stop-color="#BA8226"/>
<stop offset="0.140625" stop-color="#FAE07D"/>
<stop offset="0.257813" stop-color="#FCF2A8"/>
<stop offset="0.359375" stop-color="#FAE07D"/>
<stop offset="0.492188" stop-color="#BA8226"/>
<stop offset="0.609375" stop-color="#FAE07D"/>
<stop offset="0.71875" stop-color="#FCF2A8"/>
<stop offset="0.835938" stop-color="#FAE07D"/>
<stop offset="1" stop-color="#BA8226"/>
</linearGradient>
<linearGradient id="paint7_linear_23_727" x1="69.438" y1="85.1523" x2="67.8427" y2="87.4002" gradientUnits="userSpaceOnUse">
<stop stop-color="#BA8226"/>
<stop offset="0.140625" stop-color="#FAE07D"/>
<stop offset="0.257813" stop-color="#FCF2A8"/>
<stop offset="0.359375" stop-color="#FAE07D"/>
<stop offset="0.492188" stop-color="#BA8226"/>
<stop offset="0.609375" stop-color="#FAE07D"/>
<stop offset="0.71875" stop-color="#FCF2A8"/>
<stop offset="0.835938" stop-color="#FAE07D"/>
<stop offset="1" stop-color="#BA8226"/>
</linearGradient>
<linearGradient id="paint8_linear_23_727" x1="112.225" y1="85.165" x2="110.631" y2="87.4106" gradientUnits="userSpaceOnUse">
<stop stop-color="#BA8226"/>
<stop offset="0.140625" stop-color="#FAE07D"/>
<stop offset="0.257813" stop-color="#FCF2A8"/>
<stop offset="0.359375" stop-color="#FAE07D"/>
<stop offset="0.492188" stop-color="#BA8226"/>
<stop offset="0.609375" stop-color="#FAE07D"/>
<stop offset="0.71875" stop-color="#FCF2A8"/>
<stop offset="0.835938" stop-color="#FAE07D"/>
<stop offset="1" stop-color="#BA8226"/>
</linearGradient>
<linearGradient id="paint9_linear_23_727" x1="210.204" y1="-160.859" x2="-81.4416" y2="250.096" gradientUnits="userSpaceOnUse">
<stop stop-color="#BA8226"/>
<stop offset="0.140625" stop-color="#FAE07D"/>
<stop offset="0.257813" stop-color="#FCF2A8"/>
<stop offset="0.359375" stop-color="#FAE07D"/>
<stop offset="0.492188" stop-color="#BA8226"/>
<stop offset="0.609375" stop-color="#FAE07D"/>
<stop offset="0.71875" stop-color="#FCF2A8"/>
<stop offset="0.835938" stop-color="#FAE07D"/>
<stop offset="1" stop-color="#BA8226"/>
</linearGradient>
<linearGradient id="paint10_linear_23_727" x1="64.35" y1="18.4901" x2="21.4676" y2="78.9152" gradientUnits="userSpaceOnUse">
<stop stop-color="#BA8226"/>
<stop offset="0.140625" stop-color="#FAE07D"/>
<stop offset="0.257813" stop-color="#FCF2A8"/>
<stop offset="0.359375" stop-color="#FAE07D"/>
<stop offset="0.492188" stop-color="#BA8226"/>
<stop offset="0.609375" stop-color="#FAE07D"/>
<stop offset="0.71875" stop-color="#FCF2A8"/>
<stop offset="0.835938" stop-color="#FAE07D"/>
<stop offset="1" stop-color="#BA8226"/>
</linearGradient>
<clipPath id="clip0_23_727">
<rect width="272" height="152" fill="white"/>
</clipPath>
</defs>
</svg>
