<svg width="120" height="67" viewBox="0 0 120 67" fill="none" xmlns="http://www.w3.org/2000/svg">
<g clip-path="url(#clip0_23_307)">
<path d="M114.02 52.211L114.023 52.2046C114.064 52.1321 114.076 52.0497 114.059 51.9687L114.058 51.9669C114.058 51.965 114.058 51.963 114.057 51.9611L114.055 51.9535L114.054 51.9507C114.054 51.9489 114.053 51.9471 114.053 51.9453L114.051 51.9414L111.678 44.0769C111.481 44.2106 111.283 44.3424 111.083 44.4724L113.186 51.4391L104.605 47.7718C104.244 47.8815 103.872 47.9747 103.498 48.0385L112.626 51.9406L56.5451 64.6861L53.1334 65.5418L88.8151 51.1812C88.7493 50.9562 88.7038 50.7316 88.6758 50.5063L51.5111 65.4733L78.9339 42.969C78.6309 42.9565 78.3349 42.9055 78.0654 42.8L50.2676 65.6123L56.468 46.6346C56.2989 46.2553 56.1931 45.8491 56.1431 45.4283L49.9412 64.4105L50.1404 42.3363C49.9323 42.4151 49.7193 42.4876 49.5047 42.5514L49.3489 63.7312L49.2816 62.9732L46.1542 42.3587C45.9661 42.473 45.7715 42.5902 45.5717 42.7064L49.241 66.6693C49.2535 66.7508 49.2953 66.8245 49.3586 66.8776L49.3596 66.8785L49.3604 66.8789L49.3672 66.8845L49.3724 66.8883L49.3733 66.8889L49.3748 66.8903L49.3806 66.8936L49.3817 66.8945L49.3852 66.8964L49.3945 66.9039L49.3989 66.9068L49.4032 66.9094L49.4092 66.9129L49.4178 66.9176L49.4235 66.9206L49.4276 66.9225L49.4328 66.9247L49.4332 66.9249L49.4337 66.9251L49.4376 66.9273C49.4402 66.9285 49.4427 66.9296 49.4452 66.9307L49.4515 66.9333L49.4564 66.9352L49.4643 66.9381L49.4693 66.9398L49.4807 66.9435C49.4932 66.9472 49.5058 66.9502 49.5186 66.9525L49.5219 66.9531L49.5269 66.9539L49.5332 66.9548L49.5367 66.9553L49.5437 66.9561C49.581 66.9599 49.619 66.9582 49.6557 66.9498L113.787 52.3739L113.791 52.3733C113.883 52.3547 113.965 52.2995 114.015 52.2188L114.017 52.2148L114.02 52.211ZM110.878 41.4241L109.466 36.7438C109.244 36.8035 109.023 36.8597 108.802 36.9122L110.286 41.8312C110.484 41.6968 110.682 41.5611 110.878 41.4241ZM106.478 32.167L106.442 32.1357C106.227 32.335 105.994 32.5274 105.773 32.7124C105.619 32.8422 105.463 32.9713 105.308 33.0999L105.459 33.1768C105.615 33.0236 105.759 32.8837 105.878 32.7647C106.08 32.5651 106.277 32.364 106.478 32.167ZM102.582 28.753L97.1392 23.9841L97.0923 23.9484L72.0555 7.00642L72.0045 6.97628L58.4188 0.0673904C58.3646 0.0398331 58.3037 0.0262604 58.2428 0.0307159L58.2341 0.0313416L39.645 1.59245C39.5555 1.59997 39.4744 1.64088 39.4158 1.70846L39.4138 1.71082C39.4127 1.71201 39.4117 1.71326 39.4106 1.71452L39.4051 1.72126L39.4023 1.72467C39.355 1.78508 39.3295 1.85968 39.3318 1.93636L39.3321 1.94493C39.3326 1.96128 39.3345 1.97763 39.3375 1.99377L39.3382 1.9976L43.2098 27.2817C43.4076 27.1553 43.6079 27.0335 43.8114 26.9171L40.1695 2.91125L49.7259 12.4827L49.6227 26.5009C49.8055 26.7285 49.9344 27.0143 49.9999 27.3766C50.0437 27.6186 50.0481 27.8671 50.0136 28.1106C49.9735 28.392 49.8838 28.6568 49.7556 28.9055C49.9248 28.8894 50.0948 28.8851 50.2618 28.8955L50.4054 12.9827L63.7857 22.0368L57.7732 40.4392C58.0835 40.0686 58.4384 39.7318 58.8207 39.434L64.3746 22.4353L74.945 29.5881C75.8233 29.3118 76.6672 29.0383 77.3985 28.7282L75.3698 28.9282L71.8372 16.5727L74.8604 14.2981L89.242 24.0296L88.2238 27.6611L81.9661 28.278C81.9913 28.5053 81.9759 28.7397 81.9269 28.9653L88.0271 28.3641L85.8465 36.1426L79.3545 31.7498C79.1858 31.9061 79.0109 32.0636 78.8394 32.223L85.4791 36.716L82.4931 39.1663C82.5743 39.1274 82.6547 39.0878 82.7359 39.048C82.8451 38.9902 82.9564 38.9183 83.0634 38.8553C83.1789 38.7874 83.2958 38.7202 83.4147 38.6596C83.7177 38.5056 84.0222 38.4192 84.37 38.4848L84.3923 38.4891L86.0677 37.1144L92.6661 41.5796C92.8124 41.3977 92.9579 41.2214 93.1007 41.0516L86.4428 36.5462L88.757 28.2922L94.5178 27.7244L97.1091 36.7881C97.2932 36.6066 97.4786 36.4269 97.6662 36.2499L95.3127 28.017L99.0644 29.9247L98.9055 30.1628C98.8642 30.2246 98.8453 30.297 98.8495 30.3711L99.1274 34.8876C99.268 34.7645 99.4115 34.6439 99.5486 34.5249C99.6025 34.4784 99.6613 34.4286 99.7222 34.377C99.5941 33.8645 99.5934 33.3583 99.6879 32.8644L99.522 30.1575L100.654 30.7331C100.733 30.6181 100.816 30.5045 100.901 30.3924C100.955 30.3223 101.011 30.2516 101.071 30.1806L94.9432 27.0647L70.1605 10.295L70.1374 10.3211L69.945 10.1527C69.9342 10.1433 69.9231 10.1346 69.9113 10.1267L69.6994 9.9832L69.7189 9.95467L61.8999 3.10311L62.1546 2.73087L71.6819 7.57643L96.6955 24.5027L102.048 29.1916C102.218 29.0429 102.397 28.896 102.582 28.753ZM43.9464 32.0926L44.1267 33.2697C44.3075 33.0447 44.4905 32.8241 44.675 32.6089L44.5777 31.9678C44.3684 32.0137 44.1578 32.0552 43.9464 32.0926ZM45.0885 39.5507L45.1387 39.8788C45.3273 39.7443 45.5244 39.6093 45.7157 39.4686L45.6518 39.0476C45.487 39.2008 45.3205 39.3507 45.1524 39.4941L45.0885 39.5507ZM91.3974 50.1418L99.7565 46.7776C99.5465 46.4441 99.4038 46.0674 99.3205 45.666C99.289 45.5164 99.2659 45.365 99.2498 45.2122L95.305 42.5431C95.1581 42.7175 95.0125 42.8929 94.8677 43.0689L99.4479 46.1682L91.3967 49.4105C91.3694 49.663 91.368 49.908 91.3974 50.1418ZM50.1666 39.4364L50.1689 39.1889C50.0717 39.2823 49.9658 39.3679 49.8535 39.4429C49.8406 39.4972 49.8248 39.5516 49.8061 39.6063C49.9281 39.5525 50.0482 39.4961 50.1666 39.4364ZM50.192 36.6276L50.2134 34.2524C50.0028 34.5199 49.7833 34.7838 49.56 35.0353L49.5504 36.3465C49.7896 36.3961 50.0077 36.4926 50.192 36.6276ZM102.941 42.7975L106.706 37.296C106.659 37.3017 106.612 37.3074 106.566 37.3127C106.4 37.3314 106.237 37.3377 106.076 37.3465C105.955 37.5032 105.832 37.6854 105.729 37.8223C104.996 38.7921 104.318 39.8267 103.748 40.8994C103.45 41.4595 103.188 42.0576 102.986 42.6585C102.973 42.6974 102.958 42.7442 102.941 42.7975ZM97.937 39.6853L99.2337 44.2207C99.303 43.2011 99.6088 42.1689 99.9629 41.2574C100.03 41.085 100.1 40.9146 100.173 40.7462L99.9853 37.7001L99.338 38.3146L99.5039 41.0125L99.0497 41.0896L98.4905 39.1322C98.3044 39.3152 98.1203 39.4996 97.937 39.6853ZM74.5328 28.487L64.7762 21.8851L71.2522 17.013L74.5328 28.487ZM64.1796 21.4814L51.0406 12.5906L69.4682 10.7744L71.0513 16.3112L64.1796 21.4814ZM50.0196 11.8123L40.4331 2.20944L57.5763 0.769135L50.0196 11.8123ZM65.3555 7.03815L50.9151 11.7129L58.3275 0.880341L65.3555 7.03815ZM55.2077 11.0386L65.4025 7.73837C65.4734 7.7154 65.5337 7.67065 65.5763 7.6099L65.7407 7.37566L68.9028 10.1462L55.3022 11.4868L55.2077 11.0386ZM74.2634 13.8942L71.6364 15.8709L70.3054 11.2158L74.2634 13.8942ZM88.9544 27.5892L89.8389 24.4334L93.797 27.1119L88.9544 27.5892Z" fill="url(#paint0_linear_23_307)"/>
<path d="M8.59378 43.6124C8.04808 43.7783 6.4951 43.5477 5.95329 43.3809C3.23475 42.5438 3.01093 39.9303 3.93948 37.5444C4.22872 36.8012 4.5009 36.1453 4.89229 35.5659C5.32799 34.9209 5.52261 34.7678 5.85917 34.3242L6.92749 33.1818C7.70306 32.5047 8.54609 31.866 9.46288 31.3825C10.0883 31.0526 10.8313 30.7407 11.5953 30.5823C12.4175 30.4119 13.5139 30.4523 14.0978 30.8722C15.2083 31.6705 15.76 33.3178 15.1145 35.1581C14.5408 36.7936 13.6704 37.6316 12.4971 38.4051C11.7255 38.9137 10.3524 39.5197 9.34722 39.6308C8.97894 39.6714 8.32405 39.3844 8.2355 39.775C8.61989 40.2602 10.4688 39.5271 10.9818 39.4108C10.551 39.9303 10.1894 39.995 9.42699 41.1562C9.09849 41.6566 8.81767 42.2857 8.69356 42.9038C8.64826 43.1293 8.65559 43.421 8.59378 43.6124ZM22.0227 36.2571C22.0137 36.871 22.692 36.386 23.5995 36.2563C25.6007 35.9703 27.7665 36.4221 26.4309 39.1229C25.7071 40.5866 23.3912 42.6855 21.989 43.5236C19.9827 44.7226 18.0926 45.5605 15.7235 46.1116C13.8695 46.5428 9.86138 47.0218 9.15966 44.4889C12.3987 44.0527 15.0856 42.0735 17.3378 40.2023C17.4365 40.1202 17.4933 40.0459 17.5932 39.9634C18.6832 39.0647 20.6099 37.1358 21.5901 36.1527L25.3691 32.6663C26.0797 32.0397 27.6446 31.0172 28.5757 30.7C28.6156 32.1572 27.2459 33.5615 26.1589 34.3076C25.2765 34.9133 24.2102 35.4962 23.1543 35.8633C22.8027 35.9855 22.3175 36.1122 22.0227 36.2571ZM28.8815 29.8346C28.3526 28.5131 26.8557 28.0322 25.0238 28.2807C23.3561 28.5069 22.2009 29.0297 20.9918 29.7537C20.2682 30.187 19.2135 30.9861 18.665 31.5784C17.7155 32.604 16.3763 34.531 16.4427 36.2245C16.47 36.921 16.9426 36.8028 16.9221 36.2678C16.9127 36.0244 16.8002 35.9071 16.7953 35.6384C16.7825 34.9419 17.4251 33.6355 17.7369 33.1301C19.0615 30.9829 21.7932 29.1981 24.3468 28.7247C25.7044 28.473 27.7999 28.5025 28.3563 30.0127C28.1479 30.1587 27.8855 30.2366 27.6539 30.3504C26.0957 31.1163 24.9819 32.0233 23.6969 33.1195C22.8369 33.8532 20.674 35.8935 19.9948 36.6359L19.2254 37.3561C19.0168 37.545 18.9123 37.6478 18.7006 37.8681L17.6081 38.853C17.4153 39.0525 17.281 39.1471 17.0694 39.3507C16.9216 39.493 16.6771 39.6833 16.5036 39.8251C14.4069 41.5394 12.0108 43.273 8.98826 43.6006C9.02437 41.6087 10.3235 40.0988 11.9243 39.1855C12.6891 38.7491 13.6231 38.3722 14.6255 38.1849C14.9979 38.1153 15.9849 37.9689 16.3042 38.128C16.5035 38.2273 16.5413 38.4013 16.8694 38.4718C17.5939 38.6273 18.0716 37.9363 16.7239 37.7585C15.9279 37.6535 14.9807 37.7284 14.1983 37.8936C13.8192 37.9737 13.4997 38.1034 13.158 38.1896C13.6748 37.6934 13.9801 37.5094 14.5349 36.8309C14.9264 36.3521 15.3029 35.8159 15.5804 35.1265C15.9718 34.1543 16.1542 32.7335 15.6348 31.7279C14.7508 30.0164 12.7337 29.7623 10.8202 30.4377C9.21659 31.0037 7.50885 32.2504 6.3232 33.4809C5.61451 34.2165 5.38691 34.5141 4.79664 35.3817C4.11899 36.3779 3.45355 37.8339 3.24827 39.2889C2.91247 41.6689 3.89865 43.8409 6.28034 44.4072C7.22387 44.6315 7.80912 44.5369 8.75618 44.5536C9.06921 45.6775 9.96288 46.5129 11.023 46.8898C14.7369 48.2103 20.9403 45.6123 23.889 43.1635L26.1839 40.9018C26.8376 40.1369 28.3039 38.0993 27.6383 36.9808C26.9864 35.8852 25.5897 35.9031 24.0782 35.9679L24.9738 35.5111C25.8242 35.0726 26.6434 34.5574 27.3137 33.9262C28.1847 33.106 28.9758 32.3078 29.0687 30.4985C29.4865 30.3704 29.6948 30.1669 30.2726 30.119C30.5473 30.0962 30.7243 30.1536 30.963 30.0378C31.1105 29.9663 31.3065 29.8228 31.2074 29.6097C30.6743 29.3822 29.4092 29.748 28.8815 29.8346Z" fill="url(#paint1_linear_23_307)"/>
<path d="M42.4404 39.9852C42.537 39.4303 43.6567 37.5626 43.9471 37.1012C44.5364 36.165 45.1345 35.337 45.7623 34.5421C46.4202 33.7085 47.108 32.8748 47.8202 32.224C47.9917 32.0674 49.9736 30.2038 50.4931 30.6765C50.9772 31.1169 48.9084 33.6804 48.5148 34.0847L47.4795 35.2138C47.036 35.729 46.8274 35.8872 46.3831 36.3291L42.4404 39.9852ZM43.1686 29.7124C43.6426 29.3363 44.1436 28.9502 44.6836 28.6091C48.4134 26.2538 49.579 27.3826 47.7496 29.0488C46.6845 30.0193 43.2188 30.9707 41.775 30.8876L43.1686 29.7124ZM47.7741 26.8624H47.1673C47.1541 26.8689 47.1379 26.8748 47.1274 26.8787L46.9709 26.9287C44.7773 27.4702 43.101 28.7414 41.4329 30.1453C40.6315 30.8197 40.7916 30.9694 39.8504 30.9077C37.3624 30.7446 34.9275 30.0413 32.4175 30.5419C31.4108 30.7427 30.8057 31.024 30.1559 31.5314C29.8917 31.7377 28.6723 32.8277 28.9208 33.5009C29.3592 33.5619 29.496 32.757 29.6613 32.3881C29.8304 32.0105 30.255 31.6906 30.5941 31.4731C32.3137 30.3704 34.9127 30.5343 36.9262 30.8076C37.4753 30.8821 38.0087 30.9646 38.5592 31.0315C39.0642 31.0928 39.7763 31.1037 40.2419 31.1938C39.5167 31.8493 38.758 32.6684 38.0851 33.4329C37.9849 33.5467 37.8918 33.6105 37.7937 33.7262C36.8597 34.8274 35.931 35.8761 35.0498 37.0284C34.5566 37.6734 34.08 38.2813 33.6373 38.9532C33.4977 39.1651 33.3661 39.3806 33.1994 39.5951C32.7365 40.1907 31.0851 40.9406 30.2903 41.1099C29.6535 41.2456 28.68 41.3314 29.0058 40.423C29.174 39.9542 29.8673 39.3628 29.7946 39.0253C29.7168 38.6643 29.2524 38.7696 29.0594 38.9445C28.5641 39.3931 27.7997 40.3758 28.022 41.1429C28.3246 42.187 30.688 41.2659 31.3345 40.9822C31.6159 40.8588 31.8407 40.7555 32.0929 40.6129C32.3269 40.4807 32.5366 40.3197 32.7837 40.2178C32.6666 40.4983 32.3897 40.876 32.2138 41.1819C31.6347 42.1897 31.0716 43.1094 30.7728 44.2956C30.1312 46.843 31.927 47.0386 33.8234 46.2471C35.1628 45.6881 36.5383 44.8367 37.6726 44.0004C38.2872 43.5472 38.8506 43.1662 39.4124 42.7165C39.977 42.2647 40.5235 41.7881 41.113 41.3867C41.0798 42.3014 41.2564 42.7668 42.2495 42.7056C43.3639 42.6367 44.7098 41.8182 45.6066 41.2711C46.1044 40.9673 46.5546 40.5374 46.9908 40.2684C46.8125 40.9605 46.7333 41.5271 47.5908 41.607C48.6166 41.7024 50.0741 41.1179 50.9333 40.6292C51.1912 40.4825 51.3745 40.3787 51.6112 40.2238C51.832 40.0793 52.1469 39.9405 52.1664 39.6687C51.9347 39.6837 51.7474 39.889 51.5759 40.0083C51.0293 40.3887 50.4591 40.6642 49.8157 40.9135C48.9804 41.2371 47.1103 41.5314 48.036 40.0871C48.1591 39.8952 48.294 39.7145 48.4243 39.573C49.0487 38.8961 48.4166 38.2828 47.5745 39.3134C47.4383 39.4801 47.308 39.6929 47.1795 39.8215C46.741 40.2607 46.2125 40.5928 45.7071 40.966C44.7647 41.6614 41.5739 43.5008 42.1667 40.8199C42.264 40.3799 42.3985 40.2999 42.7009 40.0454L44.3505 38.5815C44.9698 38.0547 46.5311 36.5004 47.0406 35.9474C47.1922 35.783 47.3451 35.6706 47.4962 35.5017L48.3315 34.5757C49.1093 33.7615 52.4813 29.7598 49.7722 30.1228C49.3591 30.1782 48.8741 30.4722 48.5618 30.6651C45.9315 32.2893 42.2871 37.4136 41.3689 40.3424C41.3156 40.5123 41.2418 40.8795 41.1866 41.0146C41.1098 41.2028 39.9455 42.0624 39.7076 42.2448C38.1905 43.408 34.4296 46.3194 32.3854 46.4538C31.6599 46.5016 31.3897 46.33 31.3888 45.6268C31.3859 43.3292 34.3269 39.3553 35.6924 37.5318C36.5251 36.42 37.4344 35.3988 38.3341 34.3558C38.4141 34.2632 38.4558 34.1947 38.5359 34.1039C38.6179 34.0109 38.6773 33.9764 38.7669 33.8859C39.4094 33.237 39.979 32.5478 40.7013 31.8936C41.0301 31.5958 41.2629 31.1718 41.7481 31.1372C43.222 31.0323 44.8098 30.778 46.1279 30.2253C47.0229 29.8499 49.0256 28.8349 48.8008 27.5908C48.689 26.9722 48.1659 27.0311 47.7741 26.8624Z" fill="url(#paint2_linear_23_307)"/>
<path d="M105.914 35.6884C106.013 35.4983 106.092 35.4829 106.227 35.3202L107.191 34.298C107.43 34.0704 107.604 33.9171 107.855 33.6545C108.564 32.9156 110.652 31.4033 111.591 30.7994C112.557 30.1786 113.928 29.5121 115.167 29.0898C116.055 28.7867 118.712 28.0663 119.533 28.6615C120.583 29.4228 117.988 31.1867 117.525 31.4795C114.812 33.1944 109.141 35.6454 105.914 35.6884ZM101.573 34.3267C101.142 33.4601 101.367 32.6732 101.791 31.942C102.226 31.1924 102.669 30.7784 103.196 30.2792C103.951 29.5633 106.401 28.0798 107.353 28.3505C108.011 28.5374 107.118 29.5121 106.913 29.7479L101.573 34.3267ZM101.722 34.5117C101.878 34.2892 105.162 31.7044 105.754 31.1134C105.896 30.9705 106.046 30.8903 106.189 30.7357C106.49 30.4096 106.683 30.2338 107.001 29.9252C107.427 29.5134 108.478 28.1109 107.09 28.0787C105.359 28.0384 102.835 29.8599 101.873 31.1236C101.09 32.1503 100.437 33.4078 101.149 34.6916C101.009 34.9042 99.9 35.8017 99.5975 36.1065C99.3921 36.3129 99.2897 36.4138 99.0902 36.5911C98.2223 37.3627 96.9965 38.6312 96.1101 39.5216L94.715 41.0585C93.275 42.6105 91.1334 45.542 90.4053 47.5287C89.7729 49.2551 89.505 50.5708 90.6328 52.092C91.2696 52.9509 91.8578 52.4703 91.8196 52.2951C91.6296 52.0107 90.8905 52.0336 90.6306 51.6001C89.1288 49.0916 91.5575 45.4796 92.9739 43.512C93.1241 43.3028 93.2412 43.1605 93.3884 42.9806C93.5452 42.7894 93.6424 42.6443 93.783 42.4728C94.0686 42.1247 94.3543 41.7808 94.6466 41.4407L95.0993 40.9476C95.1958 40.848 95.2333 40.772 95.3231 40.6735C96.2691 39.6422 97.3462 38.5344 98.3562 37.5709L99.3288 36.6479C99.5062 36.4913 99.6335 36.3426 99.8183 36.1899C100.153 35.9134 100.985 35.0946 101.295 34.8853C102.198 35.8275 102.965 36.031 104.392 36.1598C104.369 36.2674 103.635 37.2016 103.473 37.4393C102.563 38.7744 101.712 40.1196 101.1 41.6937C100.701 42.7205 100.259 44.1927 100.514 45.4202C101.277 49.0931 107.947 44.9765 109.455 44.0628C110.381 43.502 111.315 42.8687 112.134 42.2725C112.673 41.8801 113.802 41.022 114.309 40.5645C114.443 40.4438 114.449 40.4123 114.595 40.3226C114.544 40.582 114.352 41.1114 114.648 41.305C114.918 41.4818 115.409 41.2832 115.624 41.1543C116.536 40.6099 116.541 39.8769 116.908 40.0116C117.024 40.103 117.028 40.1497 117.163 40.2426C117.243 40.2975 117.355 40.3654 117.452 40.406C117.975 40.6224 118.469 40.43 118.914 40.1508C119.235 39.9491 119.386 39.898 119.411 39.6703C119.182 39.6766 119.182 39.7368 119.031 39.8616C118.093 40.6366 117.033 40.2204 116.87 39.3212C116.83 39.1003 116.813 38.5347 116.438 38.7662C116.247 38.8844 116.529 39.0483 116.402 39.6326C116.315 40.0349 115.916 40.8242 115.538 40.692C115.382 40.3725 115.764 39.9231 115.928 39.7898C116.699 39.164 115.995 38.476 115.219 39.3557C115.12 39.4669 115.021 39.6196 114.917 39.7304C114.223 40.4699 112.377 41.8574 111.617 42.3882C110.593 43.1033 109.531 43.8046 108.366 44.4659C107.358 45.0378 105.9 45.793 104.676 46.1044C99.8986 47.32 101.453 42.6221 102.671 40.3322C103.289 39.1695 104.033 38.0492 104.755 37.0941C105.642 35.9196 105.294 36.2371 106.427 36.1083C109.763 35.729 113.609 34.1119 116.257 32.5591C117.358 31.9135 118.653 31.0726 119.292 30.2669C119.871 29.5381 120.576 28.2838 119.198 27.7354C116.9 26.8211 111.912 29.5936 110.404 30.6081C109.396 31.2864 108.966 31.6689 108.111 32.3338C107.618 32.7179 107.18 33.1851 106.739 33.6227C106.342 34.0162 105.061 35.2755 104.841 35.6977C103.581 35.7224 102.16 35.2286 101.722 34.5117Z" fill="url(#paint3_linear_23_307)"/>
<path d="M75.6277 32.6973C74.9469 33.5354 74.2533 34.4244 73.6017 35.3178C72.0301 37.4723 70.7494 39.2345 69.1139 41.294L68.3117 42.2523C67.4714 43.1442 67.0017 43.6889 66.0038 44.5899C64.9445 45.5468 63.4889 46.5253 62.0674 47.0208C60.9278 47.4179 59.1912 47.6261 58.2935 46.8588C57.9585 46.5725 57.6295 45.8909 57.5493 45.2607C57.3313 43.5387 58.4456 41.4594 59.7759 40.5567C60.5805 40.0107 62.1546 39.2653 63.3858 39.7698C65.4663 40.6225 64.6081 44.6037 62.6099 44.7267C61.4377 44.7989 61.5615 45.6199 62.4231 45.3058C63.0999 45.0592 63.9328 44.2775 64.3391 43.7456C65.0327 42.8384 65.4118 41.3827 64.733 40.231C63.5473 38.2191 60.142 39.3607 58.5922 41.3599C57.142 43.2306 56.4583 46.5077 59.1536 47.5327C60.4081 48.0098 61.9168 47.7574 63.1019 47.3301C64.8955 46.6836 66.0529 45.7209 67.2866 44.5169C68.4598 43.3719 69.0118 42.7327 70.025 41.4353L71.0288 40.1387C72.7654 37.8489 74.6487 35.041 76.5492 32.8933L77.1042 32.2763C77.5357 31.7426 78.3552 31.0452 78.8526 30.5499C79.4254 29.9793 80.5065 29.3518 80.6898 28.8675C80.7924 28.597 80.8315 28.0838 80.4565 28.1399C80.1205 28.19 79.1395 29.2485 78.4008 29.606C75.9061 30.8127 71.0595 31.5911 69.5147 33.5024C69.3046 33.7622 68.661 34.5443 68.9176 35.0787C69.529 35.2262 69.368 34.2649 69.5023 33.9404C69.643 33.6005 70.0656 33.2719 70.3386 33.0629C71.553 32.133 73.7638 31.5242 75.2923 31.1047C75.9592 30.9217 77.7493 30.263 77.8518 30.2406L75.6277 32.6973Z" fill="url(#paint4_linear_23_307)"/>
<path d="M74.0044 39.5523C74.024 39.4996 74.4944 38.8348 73.9109 38.6512C73.5071 38.524 73.3274 38.9936 73.1953 39.2333C73.0832 39.4359 72.3025 40.833 72.3143 40.9465C72.35 41.2903 73.0827 41.0303 73.2361 40.8941C73.4245 40.7271 73.5154 40.3332 73.7359 40.0865C73.9646 39.8309 74.892 38.9535 75.268 39.0217C75.3356 39.7366 73.4772 41.3917 73.7689 42.4512C75.1161 42.889 77.7827 40.6052 78.2753 40.3571C78.0739 41.1819 78.0114 41.7388 79.0343 41.7597C79.6493 41.7723 80.5039 41.5143 81.0487 41.3287C81.9693 41.015 82.7547 40.6611 83.583 40.2044C83.8763 40.0426 84.2651 39.8772 84.1432 39.6752C84.0477 39.6572 83.458 40.0443 83.2824 40.1309C82.9757 40.2822 82.6881 40.4205 82.3571 40.5592C81.7349 40.8199 81.0228 41.0877 80.3319 41.2431C78.3145 41.6967 78.2768 41.0952 79.3095 39.7782C79.4252 39.6309 79.846 39.1949 80.0159 39.1561C79.9416 39.3271 79.7361 39.4896 79.798 39.65C79.8755 39.8501 80.1894 39.8573 80.3397 39.7242C80.5679 39.5219 80.9005 38.8359 80.3867 38.7416C79.623 38.6012 78.8262 39.6062 78.4291 39.9389C77.8565 40.4186 77.2606 40.863 76.5666 41.2805C76.2336 41.4807 74.7991 42.3943 74.3184 42.1289C73.9538 41.4804 76.0409 39.5961 75.7404 38.6893C75.2365 38.5347 74.7335 38.9933 74.3659 39.2723C74.2275 39.3773 74.1469 39.4839 74.0044 39.5523Z" fill="url(#paint5_linear_23_307)"/>
<path d="M84.5066 41.4002C83.9096 41.1742 83.6207 42.2977 83.7888 42.478C84.1695 42.8858 84.67 41.821 84.5066 41.4002Z" fill="url(#paint6_linear_23_307)"/>
<path d="M30.1962 37.5278C30.0067 37.7828 30.0309 37.7323 29.9014 38.1195C29.6424 38.8933 30.5734 38.4447 30.6885 37.9549C30.7703 37.6071 30.5137 37.4825 30.1962 37.5278Z" fill="url(#paint7_linear_23_307)"/>
<path d="M49.0651 37.5279C48.9623 37.6662 48.9651 37.6146 48.8918 37.7888C48.3465 39.0851 49.4469 38.4259 49.5574 37.9551C49.6393 37.6072 49.3827 37.4826 49.0651 37.5279Z" fill="url(#paint8_linear_23_307)"/>
<path d="M8.59372 43.6117C8.04806 43.7776 6.49509 43.5471 5.95326 43.3802C3.23475 42.5431 3.01093 39.9297 3.93948 37.5437C4.22872 36.8006 4.5009 36.1446 4.8923 35.5652C5.32798 34.9202 5.5226 34.7671 5.85916 34.3235L6.92749 33.1812C7.70308 32.504 8.54609 31.8653 9.46288 31.3818C10.0883 31.052 10.8313 30.74 11.5953 30.5817C12.4175 30.4112 13.5139 30.4517 14.0978 30.8715C15.2082 31.6699 15.76 33.3171 15.1145 35.1574C14.5408 36.793 13.6704 37.6309 12.4971 38.4044C11.7255 38.9131 10.3524 39.519 9.34722 39.6301C8.9789 39.6707 8.32406 39.3837 8.23549 39.7743C8.61986 40.2596 10.4688 39.5264 10.9819 39.4101C10.551 39.9296 10.1894 39.9943 9.42702 41.1555C9.09846 41.6559 8.81768 42.2851 8.69355 42.9031C8.64828 43.1286 8.65564 43.4203 8.59372 43.6117ZM49.0648 37.5275C48.9622 37.6658 48.965 37.6141 48.8917 37.7884C48.3462 39.0848 49.4466 38.4255 49.5573 37.9547C49.6391 37.6068 49.3824 37.4822 49.0648 37.5275ZM30.1962 37.5275C30.0067 37.7825 30.0309 37.732 29.9013 38.1192C29.6424 38.893 30.5734 38.4445 30.6885 37.9547C30.7703 37.6068 30.5137 37.4822 30.1962 37.5275ZM84.5054 41.3996C83.9091 41.1736 83.6198 42.2972 83.7884 42.4774C84.169 42.8853 84.6696 41.8204 84.5054 41.3996ZM74.0036 39.552C74.0235 39.4993 74.4939 38.8345 73.9101 38.6509C73.5066 38.5238 73.327 38.9933 73.1948 39.233C73.0831 39.4357 72.3022 40.8327 72.3139 40.9463C72.3495 41.29 73.0826 41.03 73.2359 40.8938C73.424 40.7268 73.5149 40.3329 73.7357 40.0862C73.9639 39.8306 74.8915 38.9532 75.2677 39.0214C75.3354 39.7363 73.4767 41.3914 73.7681 42.4509C75.116 42.8886 77.7825 40.6049 78.275 40.3569C78.0733 41.1816 78.0115 41.7385 79.034 41.7594C79.6488 41.772 80.5035 41.514 81.0483 41.3284C81.9693 41.0147 82.754 40.6607 83.5823 40.2041C83.876 40.0423 84.2647 39.877 84.1432 39.6749C84.0475 39.6569 83.4578 40.044 83.2819 40.1306C82.9756 40.282 82.6878 40.4202 82.3565 40.5589C81.7344 40.8197 81.0225 41.0874 80.3312 41.2428C78.314 41.6964 78.2765 41.0949 79.3094 39.7779C79.425 39.6306 79.8453 39.1946 80.0154 39.1558C79.941 39.3268 79.7356 39.4893 79.7975 39.6497C79.8755 39.8498 80.1891 39.857 80.3393 39.7239C80.5675 39.5216 80.9003 38.8356 80.3864 38.7413C79.623 38.6009 78.8257 39.6059 78.4289 39.9386C77.8561 40.4182 77.2606 40.8627 76.5663 41.2802C76.2336 41.4804 74.7987 42.394 74.318 42.1286C73.9536 41.4802 76.0407 39.5958 75.7403 38.689C75.236 38.5345 74.7332 38.993 74.3651 39.272C74.2274 39.377 74.1465 39.4836 74.0036 39.552ZM75.6269 32.6974C74.9467 33.5355 74.2532 34.4245 73.6013 35.3179C72.0296 37.4724 70.7494 39.2345 69.1138 41.294L68.3116 42.2523C67.4713 43.1442 67.0014 43.689 66.0038 44.5899C64.9441 45.5469 63.4888 46.5254 62.0671 47.0209C60.9277 47.4179 59.191 47.6261 58.2934 46.8588C57.9585 46.5725 57.6291 45.8909 57.5493 45.2607C57.331 43.5387 58.4451 41.4594 59.7755 40.5568C60.5803 40.0107 62.1542 39.2653 63.3854 39.7699C65.4661 40.6225 64.6081 44.6036 62.6099 44.7267C61.4376 44.7989 61.5614 45.6199 62.4229 45.3059C63.0996 45.0591 63.9325 44.2775 64.339 43.7456C65.0324 42.8383 65.4113 41.3828 64.7326 40.231C63.5469 38.2191 60.142 39.3608 58.5921 41.3599C57.1418 43.2307 56.4581 46.5077 59.1531 47.5327C60.4078 48.0098 61.9165 47.7575 63.1018 47.3301C64.8953 46.6836 66.0527 45.7209 67.2863 44.5169C68.4596 43.3719 69.0116 42.7327 70.0248 41.4353L71.0285 40.1387C72.7651 37.8489 74.6485 35.0411 76.5487 32.8933L77.1037 32.2763C77.5359 31.7427 78.3545 31.0452 78.8522 30.55C79.425 29.9794 80.5064 29.3519 80.6898 28.8676C80.7921 28.5971 80.8311 28.0839 80.4564 28.1399C80.1199 28.1901 79.1393 29.2486 78.4002 29.606C75.906 30.8127 71.0592 31.5911 69.5143 33.5025C69.3044 33.7622 68.6609 34.5443 68.9176 35.0787C69.5286 35.2262 69.3677 34.2649 69.5019 33.9404C69.6425 33.6006 70.0652 33.272 70.3383 33.063C71.5529 32.1331 73.7629 31.5243 75.292 31.1047C75.959 30.9218 77.7494 30.2631 77.8517 30.2407L75.6269 32.6974ZM105.914 35.6885C106.013 35.4983 106.092 35.4829 106.227 35.3202L107.191 34.2981C107.43 34.0704 107.604 33.9171 107.855 33.6545C108.564 32.9157 110.652 31.4033 111.591 30.7994C112.557 30.1787 113.928 29.5121 115.166 29.0898C116.055 28.7867 118.712 28.0663 119.533 28.6616C120.583 29.4228 117.988 31.1868 117.524 31.4795C114.812 33.1944 109.141 35.6454 105.914 35.6885ZM101.573 34.3268C101.142 33.4601 101.367 32.6732 101.791 31.9421C102.226 31.1924 102.669 30.7785 103.196 30.2792C103.951 29.5633 106.401 28.0798 107.352 28.3505C108.011 28.5375 107.118 29.5122 106.913 29.7479L101.573 34.3268ZM101.722 34.5117C101.878 34.2892 105.162 31.7044 105.753 31.1134C105.896 30.9705 106.046 30.8903 106.189 30.7357C106.49 30.4096 106.683 30.2338 107.001 29.9252C107.427 29.5134 108.478 28.111 107.09 28.0787C105.359 28.0385 102.835 29.8599 101.873 31.1237C101.09 32.1503 100.437 33.4078 101.149 34.6916C101.009 34.9042 99.9 35.8017 99.5974 36.1066C99.392 36.3129 99.2897 36.4138 99.0902 36.5911C98.2222 37.3627 96.9965 38.6312 96.1101 39.5216L94.715 41.0586C93.275 42.6105 91.1334 45.542 90.4053 47.5287C89.7729 49.2551 89.5049 50.5708 90.6328 52.092C91.2696 52.9509 91.8578 52.4703 91.8195 52.2951C91.6296 52.0107 90.8905 52.0336 90.6306 51.6001C89.1287 49.0916 91.5574 45.4796 92.9739 43.512C93.1241 43.3028 93.2411 43.1605 93.3884 42.9806C93.5452 42.7894 93.6424 42.6443 93.783 42.4728C94.0686 42.1247 94.3543 41.7808 94.6465 41.4407L95.0993 40.9476C95.1957 40.848 95.2333 40.772 95.3231 40.6736C96.2691 39.6422 97.3461 38.5344 98.3562 37.571L99.3287 36.6479C99.5061 36.4913 99.6335 36.3426 99.8183 36.1899C100.153 35.9134 100.985 35.0947 101.295 34.8854C102.198 35.8275 102.965 36.031 104.392 36.1599C104.369 36.2674 103.635 37.2016 103.473 37.4393C102.563 38.7744 101.712 40.1196 101.1 41.6937C100.701 42.7205 100.259 44.1927 100.514 45.4202C101.277 49.0931 107.947 44.9765 109.455 44.0628C110.38 43.502 111.315 42.8687 112.134 42.2725C112.673 41.8801 113.802 41.022 114.309 40.5645C114.443 40.4438 114.449 40.4123 114.595 40.3226C114.544 40.582 114.352 41.1114 114.647 41.305C114.918 41.4818 115.409 41.2832 115.624 41.1543C116.536 40.6099 116.541 39.8769 116.908 40.0116C117.024 40.103 117.028 40.1497 117.163 40.2426C117.243 40.2975 117.354 40.3654 117.452 40.406C117.975 40.6224 118.469 40.43 118.914 40.1508C119.235 39.9492 119.386 39.898 119.411 39.6703C119.182 39.6766 119.182 39.7368 119.031 39.8616C118.093 40.6367 117.033 40.2204 116.87 39.3212C116.83 39.1003 116.813 38.5347 116.438 38.7662C116.246 38.8844 116.528 39.0483 116.402 39.6326C116.315 40.0349 115.916 40.8242 115.538 40.692C115.382 40.3725 115.764 39.9231 115.928 39.7898C116.699 39.164 115.995 38.476 115.219 39.3557C115.12 39.4669 115.021 39.6196 114.917 39.7304C114.223 40.47 112.377 41.8574 111.617 42.3883C110.593 43.1033 109.531 43.8046 108.366 44.4659C107.358 45.0378 105.9 45.793 104.676 46.1044C99.8985 47.32 101.453 42.6222 102.671 40.3322C103.289 39.1695 104.033 38.0492 104.754 37.0941C105.642 35.9197 105.294 36.2372 106.427 36.1083C109.763 35.729 113.609 34.1119 116.257 32.5591C117.358 31.9135 118.653 31.0726 119.292 30.267C119.871 29.5382 120.576 28.2839 119.198 27.7355C116.899 26.8212 111.912 29.5936 110.404 30.6081C109.396 31.2864 108.965 31.6689 108.111 32.3338C107.618 32.7179 107.18 33.1851 106.739 33.6227C106.342 34.0162 105.061 35.2755 104.841 35.6978C103.581 35.7224 102.16 35.2286 101.722 34.5117ZM42.4403 39.985C42.5369 39.4302 43.6566 37.5625 43.947 37.101C44.5364 36.1649 45.1344 35.3369 45.7621 34.5419C46.4203 33.7083 47.1081 32.8747 47.8204 32.2238C47.9917 32.0672 49.9734 30.2037 50.493 30.6763C50.9771 31.1167 48.9083 33.6803 48.5149 34.0846L47.4793 35.2136C47.0358 35.7288 46.8275 35.8871 46.3831 36.3289L42.4403 39.985ZM43.1685 29.7123C43.6425 29.3362 44.1435 28.9501 44.6836 28.609C48.4135 26.2536 49.5788 27.3824 47.7497 29.0486C46.6842 30.0191 43.2188 30.9706 41.7749 30.8875L43.1685 29.7123ZM47.7738 26.8623H47.167C47.1543 26.8687 47.1379 26.8747 47.1272 26.8786L46.9707 26.9286C44.7772 27.4701 43.101 28.7413 41.4329 30.1451C40.6315 30.8196 40.7915 30.9692 39.8504 30.9075C37.3624 30.7444 34.9274 30.0412 32.4175 30.5418C31.4107 30.7425 30.8057 31.0238 30.1559 31.5312C29.8917 31.7375 28.6722 32.8276 28.9208 33.5007C29.3591 33.5617 29.496 32.7569 29.6613 32.388C29.8304 32.0104 30.255 31.6904 30.5941 31.473C32.3136 30.3703 34.9127 30.5341 36.9262 30.8075C37.4752 30.882 38.0087 30.9644 38.5591 31.0313C39.0642 31.0927 39.7762 31.1036 40.2419 31.1937C39.5166 31.8492 38.758 32.6682 38.085 33.4327C37.9848 33.5465 37.8918 33.6103 37.7937 33.726C36.8597 34.8272 35.931 35.8759 35.0498 37.0283C34.5566 37.6732 34.08 38.2811 33.6373 38.953C33.4976 39.1649 33.3661 39.3804 33.1993 39.595C32.7364 40.1905 31.0851 40.9404 30.2903 41.1097C29.6534 41.2455 28.68 41.3312 29.0058 40.4228C29.174 39.954 29.8673 39.3627 29.7946 39.0251C29.7168 38.6642 29.2524 38.7694 29.0593 38.9444C28.564 39.393 27.7996 40.3756 28.022 41.1427C28.3246 42.1869 30.6879 41.2657 31.3345 40.9821C31.6158 40.8586 31.8407 40.7553 32.0929 40.6127C32.3269 40.4805 32.5365 40.3195 32.7836 40.2177C32.6666 40.4981 32.3897 40.8758 32.2138 41.1817C31.6347 42.1896 31.0716 43.1092 30.7728 44.2954C30.1312 46.8428 31.927 47.0384 33.8234 46.2469C35.1628 45.6879 36.5383 44.8366 37.6725 44.0002C38.2872 43.547 38.8505 43.166 39.4124 42.7163C39.977 42.2645 40.5234 41.7879 41.1129 41.3865C41.0797 42.3013 41.2563 42.7667 42.2494 42.7053C43.3638 42.6366 44.7097 41.818 45.6064 41.2709C46.1042 40.9671 46.5546 40.5372 46.9907 40.2683C46.8125 40.9603 46.7332 41.527 47.5909 41.6068C48.6166 41.7023 50.0741 41.1177 50.9331 40.629C51.191 40.4823 51.3746 40.3785 51.6112 40.2236C51.832 40.0791 52.1467 39.9403 52.1663 39.6685C51.9347 39.6835 51.7473 39.8888 51.5758 40.0082C51.0293 40.3885 50.4593 40.664 49.8158 40.9133C48.9804 41.237 47.1101 41.5312 48.036 40.0869C48.159 39.895 48.2939 39.7143 48.4244 39.5728C49.0485 38.896 48.4164 38.2827 47.5743 39.3133C47.4381 39.4799 47.3078 39.6927 47.1793 39.8213C46.7408 40.2605 46.2125 40.5927 45.7069 40.9658C44.7646 41.6612 41.5738 43.5007 42.1666 40.8197C42.2639 40.3797 42.3985 40.2997 42.7008 40.0453L44.3504 38.5813C44.9697 38.0546 46.531 36.5003 47.0407 35.9473C47.1922 35.7828 47.345 35.6705 47.4963 35.5016L48.3315 34.5756C49.1091 33.7613 52.4814 29.7597 49.7724 30.1227C49.3591 30.178 48.8741 30.472 48.5616 30.665C45.9314 32.2891 42.2871 37.4135 41.3688 40.3422C41.3156 40.5121 41.2417 40.8793 41.1866 41.0144C41.1097 41.2026 39.9455 42.0623 39.7076 42.2446C38.1904 43.4078 34.4296 46.3192 32.3854 46.4536C31.6599 46.5014 31.3897 46.3298 31.3888 45.6266C31.3859 43.329 34.3268 39.3551 35.6924 37.5317C36.525 36.4198 37.4344 35.3986 38.3341 34.3557C38.414 34.263 38.4558 34.1946 38.5359 34.1038C38.6179 34.0107 38.6773 33.9763 38.7669 33.8858C39.4093 33.2368 39.9789 32.5477 40.7012 31.8935C41.0301 31.5956 41.2629 31.1716 41.748 31.1371C43.222 31.0321 44.8097 30.7778 46.1277 30.2252C47.023 29.8497 49.0257 28.8348 48.8007 27.5907C48.6889 26.9721 48.1659 27.031 47.7738 26.8623ZM22.0227 36.2565C22.0137 36.8703 22.692 36.3853 23.5995 36.2556C25.6006 35.9697 27.7665 36.4215 26.4308 39.1223C25.707 40.5859 23.3912 42.6848 21.989 43.5229C19.9827 44.7219 18.0926 45.5597 15.7235 46.1109C13.8695 46.5421 9.86138 47.0211 9.15964 44.4883C12.3987 44.0521 15.0856 42.0728 17.3377 40.2016C17.4365 40.1196 17.4933 40.0452 17.5932 39.9628C18.6832 39.064 20.6099 37.1351 21.5901 36.1521L25.3691 32.6657C26.0797 32.039 27.6446 31.0166 28.5756 30.6993C28.6156 32.1566 27.2459 33.5609 26.1589 34.307C25.2765 34.9127 24.2102 35.4956 23.1542 35.8626C22.8026 35.9849 22.3174 36.1115 22.0227 36.2565ZM28.8815 29.834C28.3526 28.5125 26.8556 28.0315 25.0237 28.28C23.356 28.5063 22.2009 29.0291 20.9918 29.7531C20.2681 30.1864 19.2135 30.9854 18.665 31.5778C17.7155 32.6034 16.3763 34.5304 16.4427 36.2238C16.47 36.9203 16.9426 36.8021 16.9221 36.2671C16.9127 36.0238 16.8002 35.9064 16.7952 35.6377C16.7825 34.9412 17.4251 33.6349 17.7368 33.1295C19.0615 30.9823 21.7932 29.1974 24.3467 28.7241C25.7043 28.4724 27.7999 28.5019 28.3563 30.012C28.1479 30.158 27.8855 30.2359 27.6538 30.3498C26.0957 31.1156 24.9819 32.0227 23.6969 33.1189C22.837 33.8525 20.6739 35.8929 19.9948 36.6353L19.2253 37.3554C19.0168 37.5443 18.9123 37.6471 18.7006 37.8675L17.6081 38.8523C17.4153 39.0518 17.281 39.1464 17.0694 39.35C16.9216 39.4923 16.6771 39.6826 16.5035 39.8244C14.4069 41.5387 12.0108 43.2723 8.98825 43.5999C9.02433 41.608 10.3235 40.0981 11.9243 39.1848C12.689 38.7484 13.623 38.3715 14.6254 38.1842C14.9979 38.1146 15.9849 37.9683 16.3042 38.1273C16.5035 38.2266 16.5412 38.4006 16.8694 38.4711C17.5938 38.6266 18.0716 37.9356 16.7239 37.7578C15.9279 37.6528 14.9807 37.7278 14.1983 37.8929C13.8192 37.973 13.4997 38.1027 13.158 38.1889C13.6747 37.6927 13.9801 37.5087 14.5348 36.8303C14.9263 36.3515 15.3028 35.8153 15.5804 35.1258C15.9718 34.1536 16.1541 32.7329 15.6348 31.7273C14.7508 30.0157 12.7337 29.7617 10.8202 30.437C9.21662 31.0031 7.5088 32.2497 6.32321 33.4803C5.6145 34.2158 5.38689 34.5134 4.79665 35.3811C4.119 36.3772 3.45355 37.8332 3.24827 39.2882C2.91248 41.6682 3.89865 43.8402 6.28036 44.4065C7.22385 44.6308 7.80909 44.5362 8.7562 44.5529C9.06923 45.6768 9.9629 46.5121 11.0229 46.8891C14.7368 48.2096 20.9402 45.6117 23.889 43.1629L26.1838 40.9011C26.8375 40.1362 28.3039 38.0986 27.6383 36.9801C26.9864 35.8845 25.5897 35.9024 24.0782 35.9672L24.9737 35.5105C25.8241 35.072 26.6433 34.5567 27.3136 33.9256C28.1847 33.1054 28.9757 32.3071 29.0686 30.4979C29.4865 30.3697 29.6947 30.1663 30.2726 30.1183C30.5473 30.0955 30.7242 30.153 30.9629 30.0372C31.1104 29.9656 31.3065 29.8222 31.2073 29.6091C30.6743 29.3816 29.4092 29.7474 28.8815 29.834Z" fill="url(#paint9_linear_23_307)"/>
<path d="M36.7934 21.0272C36.6259 20.9714 36.0177 21.209 35.8322 21.2733C35.554 21.37 35.2857 21.4839 35.0233 21.6094C35.3325 21.6072 35.6411 21.6225 35.9447 21.6729C36.0709 21.7017 36.1984 21.7282 36.326 21.7525C36.669 21.8623 36.8247 21.6202 36.7934 21.0272ZM35.1465 23.2327C35.1344 22.8443 34.4888 22.4215 34.0376 22.177C34.1185 22.4202 34.2045 22.6615 34.2846 22.9053C34.3389 23.0704 34.3568 23.3152 34.4736 23.447C34.5103 23.6717 34.6443 23.6855 34.8759 23.4883C35.1914 23.4967 35.2819 23.4115 35.1465 23.2327ZM31.0317 23.054C31.2008 23.737 31.4953 24.3472 31.9375 24.9211C32.205 25.4973 32.5169 25.4099 32.8737 24.6593C32.7448 24.4309 32.5864 24.2226 32.3985 24.0344C32.1776 23.8007 31.9201 23.5615 31.6518 23.3772C31.4049 23.2074 31.2064 23.1294 31.0317 23.054ZM30.804 24.1132C30.7749 23.8571 30.7368 23.6025 30.6953 23.3486C30.44 23.8196 30.1478 24.3606 30.2859 24.7687C30.7687 25.3053 30.9599 25.2713 30.8596 24.6667C30.8463 24.4815 30.8277 24.2972 30.804 24.1132ZM24.6044 21.8367C25.0506 22.3581 25.7615 23.0764 26.3936 23.1384C27.1273 23.2104 26.5961 22.6433 26.3081 22.3978C25.8836 22.0358 25.2144 21.6985 24.6044 21.8367ZM24.2115 23.9171C24.466 23.3487 24.3788 22.7596 24.2141 22.1816C23.8967 22.7769 23.6679 23.381 24.2115 23.9171ZM17.4896 21.9087C17.9257 22.2814 18.3774 22.6293 18.8659 22.9422C19.1622 23.1318 19.8869 23.7065 20.2654 23.6498C21.0015 23.5396 19.861 22.6839 19.6199 22.497C19.106 22.0985 18.2015 21.4551 17.4896 21.9087ZM17.1162 22.0938C17.068 22.8149 17.0158 23.9012 17.4627 24.2837C17.676 24.66 17.7557 24.5654 17.7017 23.9999C17.7112 23.7372 17.6872 23.4776 17.6301 23.2209C17.5376 22.8056 17.3521 22.4422 17.1162 22.0938ZM10.3771 24.0636C10.9743 24.4826 11.5524 24.9462 12.1972 25.2832C12.9078 25.6545 12.933 25.0596 12.5545 24.6926C12.2273 24.3753 11.7929 24.1519 11.3315 24.0671C11.005 24.0071 10.6914 24.0358 10.3771 24.0636ZM10.4558 25.2831C10.3302 25.0053 10.183 24.7395 10.0301 24.4765C9.92137 24.9429 9.83024 25.4149 9.81626 25.8896C9.80748 26.1858 9.72983 26.7018 9.92648 26.9119C9.93965 27.1453 10.1017 27.1936 10.4122 27.0563C10.7517 27.1972 10.9008 27.1525 10.8596 26.9232C11.0645 26.6051 10.5913 25.583 10.4558 25.2831ZM4.44608 21.8187C4.52021 21.9168 4.58015 22.0103 4.63404 22.1022C4.67381 21.9492 4.7192 21.7971 4.77187 21.6468C4.75924 21.0888 4.59648 20.5246 4.44046 20.0048C4.29446 19.5184 4.4505 19.4397 3.77905 19.6908C3.28942 19.6908 3.15356 19.8222 3.37087 20.0863C3.45004 20.2564 3.53709 20.4224 3.63196 20.5849C3.87227 21.0186 4.14631 21.4218 4.44608 21.8187ZM5.13503 21.7305C5.13408 21.8542 5.12517 21.9775 5.10884 22.0998C5.14847 22.0646 5.18608 22.0292 5.22847 21.9941C5.64684 21.6481 6.49788 21.2261 6.60739 20.6595C6.83838 20.3563 6.68893 20.1331 6.15834 19.9895C6.0454 20.1029 5.94476 20.2258 5.8573 20.3581C5.7015 20.5678 5.56413 20.7855 5.44499 21.015C5.32485 21.2472 5.22377 21.487 5.13503 21.7305ZM9.09481 18.7049C9.17472 18.9506 9.35101 19.1927 9.51712 19.4316C9.5187 19.419 9.51965 19.4068 9.52137 19.3942C9.58517 18.9159 9.8401 18.268 9.7592 17.8018C9.76191 17.7159 9.76481 17.6304 9.76761 17.5449C9.26562 17.1908 9.01395 17.2344 9.01259 17.6754C8.8763 18.0124 8.98933 18.38 9.09481 18.7049ZM9.91933 19.8559C9.96929 19.8213 10.0222 19.7871 10.0811 19.7529C10.7229 19.3807 11.2494 19.1144 11.5925 18.4313C11.6953 18.2257 11.7692 18.0124 11.8139 17.7906C12.0026 17.4207 11.9277 17.2758 11.5893 17.3568C11.1318 17.3226 10.8334 17.8594 10.6106 18.1955C10.2691 18.7112 10.0275 19.2687 9.91933 19.8559ZM14.7435 16.7597C14.7581 17.0522 14.8458 17.3496 14.9081 17.6425C14.9845 17.4603 15.0865 17.2403 15.2074 17.0063C15.4873 16.2004 15.6076 15.3562 15.5272 14.5031C15.4056 13.2167 14.9917 14.7483 14.8954 15.1461C14.7673 15.6762 14.7174 16.2202 14.7435 16.7597ZM15.6282 16.8938C15.4958 17.3199 15.3227 17.737 15.1093 18.1402C15.0772 18.2009 15.0231 18.227 14.9671 18.2302C14.9644 18.2707 14.9601 18.3107 14.9532 18.3503C15.5582 17.8009 16.1877 17.2466 16.6863 16.6305C16.9922 16.42 17.003 16.2301 16.7193 16.0618C16.6311 15.804 16.5287 15.7599 16.413 15.9291C16.1965 16.0015 15.9177 16.4555 15.7931 16.6323C15.7331 16.7174 15.6807 16.8056 15.6282 16.8938ZM21.9065 17.2812C22.3026 16.4105 22.8311 14.9661 22.0133 14.967C21.7201 14.8437 21.6047 14.9265 21.6668 15.2145C21.6435 15.3531 21.6319 15.4926 21.6318 15.6321C21.6226 15.8769 21.6327 16.1239 21.6607 16.3664C21.6955 16.671 21.8261 16.9784 21.9065 17.2812ZM22.264 17.4067C22.2469 17.4418 22.2291 17.4765 22.2115 17.5116C22.3045 17.4913 22.403 17.476 22.5147 17.4666C22.6699 17.4571 22.8256 17.4531 22.9809 17.4531C23.292 16.8798 23.2033 16.7493 22.7143 17.0612C22.5349 17.1557 22.3859 17.2713 22.264 17.4067ZM28.5223 17.8567C29.0237 17.4904 29.4582 17.0877 29.8357 16.6022C30.0019 16.3885 30.1606 16.1698 30.2918 15.9349C30.5296 15.5083 30.7343 15.381 30.1601 15.2631C29.5973 15.1475 29.547 15.3909 29.2792 15.8125C29.1321 16.0442 29.0129 16.2787 28.9035 16.5275C28.7097 16.9676 28.6235 17.3995 28.5223 17.8567ZM29.4244 17.8203C29.1779 17.9107 28.9442 18.0358 28.7163 18.1649C28.9458 18.3116 29.2638 18.3017 29.5303 18.2837C29.9438 18.2558 30.1311 18.3148 30.1709 17.9062C30.2242 17.3608 29.7517 17.6997 29.4244 17.8203ZM37.7189 21.3534C37.7296 21.879 37.1388 22.1596 36.664 22.1531C36.2106 22.147 35.778 21.9816 35.3221 21.9636C35.0222 21.9514 34.7182 21.9627 34.4163 21.9906C35.1151 22.4362 35.9809 23.2253 35.4878 23.9306C35.216 24.3191 34.6694 24.25 34.3666 23.9604C33.9239 23.5374 33.7597 22.6347 33.6025 22.0459C32.3025 21.5631 30.9683 21.1559 29.6117 20.8265C29.9199 21.1347 30.1985 21.4668 30.4314 21.838C30.5565 22.0376 30.6353 22.3493 30.8011 22.508C30.9725 22.6719 31.3514 22.7452 31.5657 22.8612C32.2927 23.2544 33.504 24.325 33.4189 25.2311C33.357 25.8899 32.686 26.048 32.1754 25.712C31.7985 25.4639 31.4955 25.0818 31.2534 24.6534C31.2662 25.2894 31.131 25.8322 30.6202 25.8478C30.134 25.8626 29.9279 25.1228 29.917 24.779C29.8938 24.0374 30.3254 23.4351 30.5877 22.7709C30.5208 22.7032 30.4547 22.624 30.3877 22.5141C29.9601 21.8133 29.5309 21.2022 28.8949 20.6609C28.2798 20.5255 27.6611 20.4026 27.0385 20.3005C27.3507 20.7032 27.6772 21.0938 28.0223 21.4704C28.0766 21.4384 28.1332 21.411 28.1941 21.3934C28.618 21.2693 29.0289 21.5068 29.1625 21.8907C29.2956 22.2733 29.0143 22.7145 28.6188 22.8301C28.1949 22.9542 27.7839 22.7167 27.6504 22.3329C27.5779 22.1245 27.631 21.9006 27.756 21.7192C27.3168 21.2409 26.9044 20.7423 26.5166 20.2231C25.1883 20.0264 23.847 19.9045 22.5012 19.8708C23.1713 20.3333 23.7331 20.9052 24.2373 21.541C24.2705 21.5374 24.3035 21.5424 24.3341 21.5559C25.0087 21.3138 25.736 21.5541 26.3115 21.9456C26.6244 22.1583 27.4112 22.8293 27.3213 23.2908C27.1232 24.3056 25.5055 23.1008 24.6328 22.3221C24.7907 22.9852 24.8192 23.652 24.4302 24.2898C24.3653 24.3965 24.2345 24.4061 24.1413 24.3373C23.1596 23.6131 23.5296 22.7004 23.9976 21.8268C23.3893 21.0447 22.6996 20.3603 21.8134 19.8649C20.9211 19.8618 20.0281 19.8919 19.1366 19.9653C19.1166 19.9693 19.0976 19.9725 19.0802 19.9702C17.9459 20.066 16.8143 20.2244 15.6911 20.4512C15.6591 20.4575 15.6276 20.4656 15.5953 20.4724C16.2513 20.696 16.8015 21.1176 17.2533 21.6508C17.8462 21.2477 18.5043 21.3943 19.1277 21.7368C19.639 22.0181 20.1094 22.3915 20.5067 22.8051C20.7054 23.0122 21.1706 23.3771 21.1429 23.685C21.0466 24.7393 18.9559 23.4203 17.8081 22.595C17.99 23.0324 18.085 23.499 18.0709 23.9895C18.063 24.2658 18.0828 24.8164 17.7212 24.9255C16.5862 25.2677 16.7506 22.1304 16.771 21.7345C16.7725 21.7111 16.7795 21.6918 16.7871 21.6733C16.259 21.1185 15.58 20.7144 14.7657 20.6569C14.0425 20.8278 13.327 21.0272 12.6205 21.2531C12.619 21.2535 12.6173 21.2535 12.6155 21.2544C12.4928 21.2936 12.3699 21.3332 12.2477 21.3736C12.4515 21.4582 12.6436 21.5721 12.8354 21.6742C12.9964 21.7597 13.1574 21.8452 13.3182 21.9312C13.4062 21.8479 13.5106 21.7818 13.6277 21.7476C14.0361 21.6283 14.432 21.8569 14.5606 22.2268C14.6888 22.5953 14.4179 23.0204 14.037 23.1318C13.6287 23.2511 13.2324 23.0226 13.1041 22.6527C13.0555 22.5133 13.0644 22.366 13.1144 22.2305C12.9961 22.1677 12.8779 22.1048 12.7596 22.0419C12.4606 21.8826 12.1516 21.6657 11.8064 21.6117C11.7632 21.6049 11.7345 21.5851 11.7124 21.5617C10.2722 22.076 8.87757 22.7041 7.54707 23.4405C7.80725 23.429 8.07273 23.4435 8.34544 23.4803C8.78743 23.5401 9.21372 23.6873 9.65467 23.7409C10.0707 23.7915 10.4638 23.6791 10.8785 23.6742C11.9509 23.6615 13.3529 24.4236 13.4068 25.5492C13.4097 25.6111 13.3705 25.6698 13.3175 25.7035C12.5451 26.1933 11.4087 25.3471 10.5772 24.6894C10.887 25.2642 11.1421 25.8712 11.2115 26.5158C11.2569 26.94 11.2823 27.9572 10.6798 28.1361C10.0495 28.3232 9.68852 27.4227 9.57119 27.0157C9.29653 26.0629 9.51377 25.044 9.7468 24.0893C9.63766 24.0851 9.5282 24.0762 9.41626 24.0547C8.45598 23.8697 7.53445 23.6169 6.59626 23.9919C5.42635 24.7019 4.31346 25.498 3.27041 26.376C3.90914 26.444 4.54784 26.5119 5.18639 26.58C5.27716 26.3319 5.49313 26.1193 5.7568 26.0423C6.20951 25.9098 6.64893 26.1636 6.79159 26.5736C6.93359 26.9826 6.63313 27.454 6.21042 27.5774C5.7577 27.71 5.31834 27.4566 5.17562 27.0461C5.16255 27.0079 5.15675 26.9688 5.15114 26.9298C4.40179 26.8501 3.65236 26.7705 2.90311 26.6906C1.98578 27.4929 1.12338 28.3564 0.332624 29.2846C0.180175 29.4635 -0.0835941 29.223 0.0672824 29.0458C1.07105 27.8673 2.18613 26.7862 3.38982 25.8091C3.38994 25.8085 3.38991 25.8081 3.39009 25.8076C3.7296 25.1544 3.94025 24.4465 4.22684 23.7718C4.53915 23.036 4.49299 22.5128 4.04211 21.8997C3.80846 21.5824 3.59461 21.2616 3.39859 20.9205C3.05272 20.318 2.34408 19.167 3.26109 18.6325C4.29436 18.0299 4.6949 19.5616 4.87377 20.165C4.94942 20.4206 5.01598 20.6865 5.06485 20.9556C5.1644 20.7585 5.27517 20.5664 5.39698 20.3819C5.63757 20.0179 6.11422 19.2584 6.65775 19.3884C7.26404 19.5333 7.15069 20.4103 6.9563 20.8076C6.50463 21.73 5.40119 22.0873 4.85481 22.937C4.8435 23.148 4.78856 23.3726 4.68856 23.6312C4.47435 24.1865 4.26422 24.7618 4.0211 25.3173C4.69051 24.8067 5.38291 24.3248 6.09897 23.8776C6.11255 23.8472 6.1344 23.8187 6.17481 23.7979C6.25074 23.7589 6.32707 23.7249 6.40327 23.6927C6.60472 23.5706 6.8073 23.4503 7.01182 23.3333C7.02051 23.3183 7.02843 23.3032 7.04368 23.2892C7.58653 22.7888 8.12467 22.2814 8.63245 21.748C8.9335 21.4326 9.37236 21.029 9.45087 20.5952C9.52675 20.1758 9.1906 19.7835 9.01512 19.4433C8.65055 18.7373 8.28214 17.7213 8.90508 17.0198C9.2758 16.6018 9.84295 16.5064 10.0793 17.0472C10.2434 17.4225 10.1172 17.9823 10.0603 18.3724C10.0573 18.3922 10.0541 18.412 10.0511 18.4318C10.1777 18.1982 10.3222 17.9715 10.4854 17.7546C10.7235 17.4373 11.4331 16.4708 11.9542 16.6755C12.5423 16.9068 12.1329 18.1195 11.9645 18.4858C11.7871 18.8714 11.5341 19.212 11.2049 19.4946C10.8636 19.7871 10.0859 20.0219 9.88436 20.4449C9.81589 21.1824 9.08386 21.9631 8.37322 22.6025C9.6811 21.9465 11.042 21.3885 12.4407 20.9381C12.9835 20.3054 13.5598 19.6984 14.0928 19.0586C14.5084 18.56 14.5921 18.3944 14.5094 17.7775C14.4827 17.5782 14.4326 17.3851 14.4082 17.1849C14.3284 16.5284 14.3627 15.8535 14.5054 15.2015C14.6004 14.7681 14.7394 13.9604 15.1082 13.654C15.7352 13.1325 15.8593 14.0882 15.8961 14.4928C15.9414 14.9895 15.9202 15.4831 15.8441 15.9696C16.3086 15.3522 16.8392 14.9625 17.2584 15.4534C17.5631 15.8103 17.3255 16.3516 17.0961 16.6854C16.4706 17.5953 15.4379 18.3575 14.6388 19.1288C14.5914 19.1747 14.537 19.1868 14.4858 19.1796C14.0629 19.7223 13.5672 20.2285 13.0973 20.7396C13.6114 20.5871 14.1285 20.4454 14.6507 20.3221C14.6698 20.3117 14.6928 20.3059 14.7192 20.3045C15.11 20.2127 15.5027 20.129 15.8973 20.0534C16.3078 19.9756 16.7191 19.9077 17.1309 19.8465C17.1248 19.8118 17.129 19.774 17.1562 19.734C17.5264 19.1904 17.9235 18.6657 18.3479 18.1604C18.2575 18.0785 18.1849 17.9764 18.1431 17.8563C18.0193 17.4999 18.2811 17.0895 18.6492 16.9815C19.0441 16.8663 19.4271 17.0873 19.5514 17.4445C19.6752 17.8009 19.4134 18.2117 19.0453 18.3197C18.9169 18.3571 18.7909 18.3562 18.6735 18.3292C18.2759 18.7989 17.9033 19.2863 17.5544 19.7907C18.0571 19.7236 18.5604 19.6674 19.0639 19.6251C19.0659 19.6242 19.067 19.6228 19.0689 19.6224C19.7672 19.3519 21.1131 18.6707 21.4713 17.9953C21.7173 17.5318 21.347 16.8708 21.2916 16.3768C21.2377 15.8976 21.0818 14.5944 21.6929 14.293C22.3792 13.9546 22.7152 14.8469 22.7657 15.309C22.8191 15.7932 22.722 16.2674 22.5565 16.7268C23.0007 16.4231 23.5066 16.2886 23.8585 16.6305C24.0654 16.8317 24.0445 17.1966 23.8755 17.4243C23.4277 18.0268 22.5438 17.6425 21.9691 17.9804C21.9629 17.9921 21.9569 18.0038 21.9508 18.0155C21.9244 18.065 21.8853 18.0916 21.8424 18.1028C21.7023 18.3179 21.4677 18.4876 21.2429 18.6806C20.8491 19.0185 20.4343 19.3119 19.9901 19.563C20.5954 19.5301 21.2009 19.5126 21.8057 19.5148C21.8385 19.5022 21.8761 19.504 21.9149 19.5162C22.3782 19.5193 22.8408 19.5333 23.3029 19.5558C23.3104 19.5274 23.3244 19.4991 23.3553 19.473C23.8106 19.0955 24.2656 18.7179 24.7211 18.3404C24.8396 18.2419 24.9879 18.0875 25.1469 17.94C25.1136 17.8905 25.0844 17.8383 25.0643 17.7802C24.9454 17.4382 25.1968 17.0436 25.5507 16.9401C25.9299 16.829 26.2976 17.0414 26.417 17.3847C26.5358 17.7271 26.2845 18.1217 25.9307 18.2252C25.7533 18.277 25.5794 18.2563 25.4311 18.1861C25.3533 18.2617 25.282 18.3341 25.2274 18.3796C25.0667 18.5128 24.9062 18.6459 24.7453 18.7791C24.4237 19.046 24.1022 19.3128 23.7806 19.5796C24.188 19.6057 24.5949 19.6377 25.0007 19.6782C25.0069 19.6768 25.0111 19.6737 25.0176 19.6728C25.9584 19.5409 27.0432 19.2395 27.7296 18.5546C28.2459 18.0394 28.2025 17.3194 28.4445 16.6787C28.7008 15.9992 29.3032 14.6098 30.1876 14.4892C30.8989 14.3924 31.033 15.1218 30.8554 15.6249C30.6115 16.316 30.0972 16.9536 29.5192 17.4913C30.3475 17.2461 31.2947 17.1435 30.9873 18.0101C30.6976 18.8273 28.9644 18.8502 28.3565 18.3292C27.9608 19.0968 27.0061 19.5517 26.0854 19.806C27.0501 19.9342 28.0075 20.107 28.956 20.3158C28.9886 20.3113 29.0221 20.3117 29.055 20.3239C29.0832 20.3347 29.1116 20.3455 29.1401 20.3558C29.6002 20.4598 30.0587 20.57 30.5142 20.6919C30.5234 20.6326 30.5606 20.5768 30.6385 20.5529C31.4306 20.3126 32.2257 20.0822 33.0227 19.8586C32.9935 19.5418 33.2319 19.217 33.5519 19.1234C33.9429 19.0091 34.322 19.2282 34.445 19.5823C34.5676 19.9351 34.3085 20.3419 33.9436 20.4485C33.6327 20.5394 33.3312 20.4175 33.1582 20.1857C32.428 20.3905 31.6998 20.602 30.9739 20.8206C31.919 21.087 32.8524 21.3885 33.7698 21.7291C33.7821 21.7233 33.7942 21.7179 33.8093 21.7152C33.9268 21.6963 34.0456 21.6828 34.1642 21.6679C35.0979 21.1446 37.6881 19.8802 37.7189 21.3534Z" fill="url(#paint10_linear_23_307)"/>
</g>
<defs>
<linearGradient id="paint0_linear_23_307" x1="148.642" y1="-40.9925" x2="89.1188" y2="71.63" gradientUnits="userSpaceOnUse">
<stop stop-color="white"/>
<stop offset="0.140625" stop-color="#FAE07D"/>
<stop offset="0.257813" stop-color="#FCF2A8"/>
<stop offset="0.359375" stop-color="#FAE07D"/>
<stop offset="0.492188" stop-color="#BA8226"/>
<stop offset="0.609375" stop-color="#FAE07D"/>
<stop offset="0.71875" stop-color="#FCF2A8"/>
<stop offset="0.835938" stop-color="#FAE07D"/>
<stop offset="1" stop-color="#BA8226"/>
</linearGradient>
<linearGradient id="paint1_linear_23_307" x1="25.919" y1="25.585" x2="8.62859" y2="49.9702" gradientUnits="userSpaceOnUse">
<stop stop-color="#BA8226"/>
<stop offset="0.140625" stop-color="#FAE07D"/>
<stop offset="0.257813" stop-color="#FCF2A8"/>
<stop offset="0.359375" stop-color="#FAE07D"/>
<stop offset="0.492188" stop-color="#BA8226"/>
<stop offset="0.609375" stop-color="#FAE07D"/>
<stop offset="0.71875" stop-color="#FCF2A8"/>
<stop offset="0.835938" stop-color="#FAE07D"/>
<stop offset="1" stop-color="#BA8226"/>
</linearGradient>
<linearGradient id="paint2_linear_23_307" x1="48.1852" y1="25.4491" x2="32.0836" y2="48.1576" gradientUnits="userSpaceOnUse">
<stop stop-color="#BA8226"/>
<stop offset="0.140625" stop-color="#FAE07D"/>
<stop offset="0.257813" stop-color="#FCF2A8"/>
<stop offset="0.359375" stop-color="#FAE07D"/>
<stop offset="0.492188" stop-color="#BA8226"/>
<stop offset="0.609375" stop-color="#FAE07D"/>
<stop offset="0.71875" stop-color="#FCF2A8"/>
<stop offset="0.835938" stop-color="#FAE07D"/>
<stop offset="1" stop-color="#BA8226"/>
</linearGradient>
<linearGradient id="paint3_linear_23_307" x1="187.235" y1="0.148949" x2="154.442" y2="46.3971" gradientUnits="userSpaceOnUse">
<stop stop-color="#BA8226"/>
<stop offset="0.140625" stop-color="#FAE07D"/>
<stop offset="0.257813" stop-color="#FCF2A8"/>
<stop offset="0.359375" stop-color="#FAE07D"/>
<stop offset="0.492188" stop-color="#BA8226"/>
<stop offset="0.609375" stop-color="#FAE07D"/>
<stop offset="0.71875" stop-color="#FCF2A8"/>
<stop offset="0.835938" stop-color="#FAE07D"/>
<stop offset="1" stop-color="#BA8226"/>
</linearGradient>
<linearGradient id="paint4_linear_23_307" x1="84.4694" y1="22.8298" x2="66.8529" y2="47.6748" gradientUnits="userSpaceOnUse">
<stop stop-color="#BA8226"/>
<stop offset="0.140625" stop-color="#FAE07D"/>
<stop offset="0.257813" stop-color="#FCF2A8"/>
<stop offset="0.359375" stop-color="#FAE07D"/>
<stop offset="0.492188" stop-color="#BA8226"/>
<stop offset="0.609375" stop-color="#FAE07D"/>
<stop offset="0.71875" stop-color="#FCF2A8"/>
<stop offset="0.835938" stop-color="#FAE07D"/>
<stop offset="1" stop-color="#BA8226"/>
</linearGradient>
<linearGradient id="paint5_linear_23_307" x1="92.3886" y1="32.5082" x2="86.2267" y2="41.1984" gradientUnits="userSpaceOnUse">
<stop stop-color="#BA8226"/>
<stop offset="0.140625" stop-color="#FAE07D"/>
<stop offset="0.257813" stop-color="#FCF2A8"/>
<stop offset="0.359375" stop-color="#FAE07D"/>
<stop offset="0.492188" stop-color="#BA8226"/>
<stop offset="0.609375" stop-color="#FAE07D"/>
<stop offset="0.71875" stop-color="#FCF2A8"/>
<stop offset="0.835938" stop-color="#FAE07D"/>
<stop offset="1" stop-color="#BA8226"/>
</linearGradient>
<linearGradient id="paint6_linear_23_307" x1="96.8832" y1="37.6939" x2="96.0055" y2="38.9318" gradientUnits="userSpaceOnUse">
<stop stop-color="#BA8226"/>
<stop offset="0.140625" stop-color="#FAE07D"/>
<stop offset="0.257813" stop-color="#FCF2A8"/>
<stop offset="0.359375" stop-color="#FAE07D"/>
<stop offset="0.492188" stop-color="#BA8226"/>
<stop offset="0.609375" stop-color="#FAE07D"/>
<stop offset="0.71875" stop-color="#FCF2A8"/>
<stop offset="0.835938" stop-color="#FAE07D"/>
<stop offset="1" stop-color="#BA8226"/>
</linearGradient>
<linearGradient id="paint7_linear_23_307" x1="30.6341" y1="37.5341" x2="29.9312" y2="38.5256" gradientUnits="userSpaceOnUse">
<stop stop-color="#BA8226"/>
<stop offset="0.140625" stop-color="#FAE07D"/>
<stop offset="0.257813" stop-color="#FCF2A8"/>
<stop offset="0.359375" stop-color="#FAE07D"/>
<stop offset="0.492188" stop-color="#BA8226"/>
<stop offset="0.609375" stop-color="#FAE07D"/>
<stop offset="0.71875" stop-color="#FCF2A8"/>
<stop offset="0.835938" stop-color="#FAE07D"/>
<stop offset="1" stop-color="#BA8226"/>
</linearGradient>
<linearGradient id="paint8_linear_23_307" x1="49.5106" y1="37.5396" x2="48.8084" y2="38.53" gradientUnits="userSpaceOnUse">
<stop stop-color="#BA8226"/>
<stop offset="0.140625" stop-color="#FAE07D"/>
<stop offset="0.257813" stop-color="#FCF2A8"/>
<stop offset="0.359375" stop-color="#FAE07D"/>
<stop offset="0.492188" stop-color="#BA8226"/>
<stop offset="0.609375" stop-color="#FAE07D"/>
<stop offset="0.71875" stop-color="#FCF2A8"/>
<stop offset="0.835938" stop-color="#FAE07D"/>
<stop offset="1" stop-color="#BA8226"/>
</linearGradient>
<linearGradient id="paint9_linear_23_307" x1="92.737" y1="-70.9056" x2="-35.7801" y2="110.345" gradientUnits="userSpaceOnUse">
<stop stop-color="#BA8226"/>
<stop offset="0.140625" stop-color="#FAE07D"/>
<stop offset="0.257813" stop-color="#FCF2A8"/>
<stop offset="0.359375" stop-color="#FAE07D"/>
<stop offset="0.492188" stop-color="#BA8226"/>
<stop offset="0.609375" stop-color="#FAE07D"/>
<stop offset="0.71875" stop-color="#FCF2A8"/>
<stop offset="0.835938" stop-color="#FAE07D"/>
<stop offset="1" stop-color="#BA8226"/>
</linearGradient>
<linearGradient id="paint10_linear_23_307" x1="28.3895" y1="8.14966" x2="9.49288" y2="34.8001" gradientUnits="userSpaceOnUse">
<stop stop-color="#BA8226"/>
<stop offset="0.140625" stop-color="#FAE07D"/>
<stop offset="0.257813" stop-color="#FCF2A8"/>
<stop offset="0.359375" stop-color="#FAE07D"/>
<stop offset="0.492188" stop-color="#BA8226"/>
<stop offset="0.609375" stop-color="#FAE07D"/>
<stop offset="0.71875" stop-color="#FCF2A8"/>
<stop offset="0.835938" stop-color="#FAE07D"/>
<stop offset="1" stop-color="#BA8226"/>
</linearGradient>
<clipPath id="clip0_23_307">
<rect width="120" height="67" fill="white"/>
</clipPath>
</defs>
</svg>
